<svg xmlns="http://www.w3.org/2000/svg" width="512" height="512" viewBox="0 0 512 512"><path fill-rule="evenodd" d="M123.748 1.427c-5.531 1.974-10.344 6.03-13.476 11.357L107.5 17.5l-.264 132.085-.265 132.084-9.976 1.638C4.387 298.508-32.289 411.803 33.954 478.046c59.563 59.562 160.002 37.151 189.551-42.296l1.767-4.75h132.686c149.136 0 138.553.541 146.591-7.496 8.339-8.339 7.68 9.877 7.517-207.829-.098-129.527-.486-194.455-1.18-197.059-2.14-8.028-8.048-14.351-16.049-17.174-5.892-2.078-365.265-2.094-371.089-.015M137 45.5V61h225V30H137zm255 0V61h30V30h-30zm60 0V61h30V30h-30zM137 187.3v96.299l9.75 2.732c47.519 13.317 83.25 59.37 83.25 107.3V401h252V91H137zm108.02-19.05c-6.591 3.368-6.637 3.466-27.569 58.495-19.604 51.539-20.649 55.037-17.987 60.186 7.018 13.571 22.814 11.109 28.857-4.498l2.298-5.933 21.525-.269 21.525-.269 2.708 6.903c3.013 7.678 4.429 9.32 10.071 11.678 9.353 3.908 19.825-3.312 19.825-13.669 0-4.357-37.512-104.637-40.62-108.588-4.676-5.945-13.513-7.674-20.633-4.036m86.585 1.672c-7.411 4.885-7.138 2.445-6.824 61.038.361 67.625-1.752 63.05 29.117 63.025 27.988-.022 37.238-3.025 49.564-16.092 11.89-12.604 16.985-27.083 16.854-47.893-.197-31.151-14.477-53.129-39.248-60.405-8.663-2.544-45.476-2.301-49.463.327M354 214.34c0 8.987.296 23.837.657 33l.657 16.66h8.027c17.904 0 26.881-10.804 27.006-32.5.136-23.696-7.744-33.432-27.097-33.478L354 198zm-102 5.773c0 .246-2.212 6.171-4.915 13.167L242.17 246h9.915c5.453 0 9.915-.204 9.915-.453s-2.057-5.981-4.571-12.737c-4.081-10.97-5.429-14.121-5.429-12.697m-150 92.58c-68.616 11.534-95.822 95.223-46.869 144.176 51.765 51.764 140.707 17.87 144.581-55.098 2.869-54.056-45.225-97.901-97.712-89.078m7 16.009c-3.471 1.258-8.061 6.829-8.647 10.494-.496 3.097-1.356 4.202-4.883 6.269-17.505 10.258-20.368 38.552-5.152 50.909 4.793 3.892 15.311 9.326 24.477 12.647 6.961 2.521 8.71 4.521 7.268 8.313-2.428 6.386-10.901 7.485-20.563 2.666-12.017-5.993-23.486-.234-23.496 11.8-.007 7.963 4.661 13.255 15.623 17.71 4.827 1.962 5.853 2.846 6.925 5.963 5.029 14.63 26.006 13.36 28.84-1.746.507-2.707 1.801-4.217 6.224-7.262 25.747-17.733 21.504-52.852-7.79-64.486-10.507-4.172-17.826-7.784-17.826-8.796 0-3.553 7.596-4.214 12.635-1.1 12.505 7.729 27.44-5.082 21.522-18.462-1.96-4.43-9.429-10.621-12.814-10.621-.696 0-1.741-1.687-2.321-3.75-2.498-8.884-11.513-13.633-20.022-10.548M.374 396.5c.002 6.05.167 8.396.366 5.213.199-3.182.197-8.132-.004-11-.201-2.867-.364-.263-.362 5.787"/></svg>