<svg xmlns="http://www.w3.org/2000/svg" width="512" height="512" viewBox="0 0 512 512"><path fill-rule="evenodd" d="M247.108 1.082c-18.305 3.594-33.455 19.725-36.084 38.418-.577 4.105-.993 39.723-1.004 86.114l-.02 79.113-2.636 2.637-2.637 2.636-79.113.02c-86.445.021-89.427.184-100.189 5.452-33.463 16.383-32.969 65.764.816 81.549 10.079 4.709 14.673 4.938 99.373 4.959l79.113.02 2.637 2.636 2.636 2.637.02 79.113c.021 86.445.184 89.427 5.452 100.189 16.225 33.139 64.831 33.139 81.056 0 5.268-10.762 5.431-13.744 5.452-100.189l.02-79.113 2.636-2.637 2.637-2.636 79.113-.02c84.7-.021 89.294-.25 99.373-4.959 11.745-5.487 22.945-19.436 24.763-30.841.323-2.024 1.013-4.461 1.533-5.416 1.187-2.182 1.251-11.071.074-10.344-.479.296-1.121-1.323-1.426-3.599-1.585-11.819-12.841-26.187-24.944-31.842-10.079-4.709-14.673-4.938-99.373-4.959l-79.113-.02-2.637-2.636-2.636-2.637-.02-79.113c-.012-47.729-.419-81.891-1.027-86.114-3.708-25.76-28.441-43.407-53.845-38.418"/></svg>