<svg xmlns="http://www.w3.org/2000/svg" width="512" height="512" viewBox="0 0 512 512"><path fill-rule="evenodd" d="M124.142 54.06c-24.659 4.395-50.154 28.02-67.383 62.44C4.817 220.271 38.666 390.328 116 414.131c28.741 8.846 64.366-8.589 85.339-41.765 5.175-8.187 6.727-9.805 14.967-15.601 52.314-36.8 118.506-55.483 172.694-48.744 4.125.512 9.975 1.206 13 1.54l5.5.609 5.622-8.835c29.875-46.953 30.184-94.076.863-131.555-5.31-6.786-6.369-7.668-8.762-7.296-22.253 3.455-71.525-.551-99.078-8.056-41.816-11.39-93.064-38.204-103.367-54.084-22.323-34.405-50.904-51.227-78.636-46.284m-1.695 17.289c-15.492 5.059-33.071 20.979-44.558 40.354-57.45 96.897-26.585 274.352 50.004 287.485 64.388 11.042 112.236-123.114 83.656-234.557-11.163-43.531-33.306-78.6-56.958-90.21-9.021-4.428-23.697-5.831-32.144-3.072m63.652 96.28c-10.896 3.564-29.942 7.144-43.599 8.197-14.338 1.105-19.228 3.037-25.998 10.276-16.958 18.128-20.8 60.865-7.866 87.489 7.14 14.697 14.645 19.768 32.467 21.934 15.677 1.906 30.684 4.895 43.115 8.588 5.345 1.588 9.92 2.887 10.167 2.887.635 0 4.231-15.828 6.02-26.5 5.546-33.072 4.287-75.741-3.169-107.418-2.054-8.724-1.687-8.544-11.137-5.453M439 178.362c0 .199 1.348 3.333 2.995 6.966 14.149 31.206 12.877 68.227-3.555 103.448l-4.328 9.275 15.182-.275 15.182-.276 2.216-4.5c14.443-29.329 17.101-71.082 6.645-104.374-1.404-4.469-3.009-8.688-3.567-9.376-.92-1.133-30.77-1.995-30.77-.888m-91.5 145.3c-1.65.199-6.712.853-11.25 1.453l-8.25 1.092-.018 7.146c-.078 30.426-11.603 63.113-29.493 83.647-9.815 11.266-11.719 19.626-6.543 28.736 10.32 18.165 67.362 16.909 83.408-1.837 5.535-6.466 5.646-7.781 5.646-66.842V323l-15.25.15c-8.387.082-16.6.313-18.25.512"/></svg>