<svg xmlns="http://www.w3.org/2000/svg" width="233" height="414" viewBox="0 0 233 414"><path fill-rule="evenodd" d="M219.5 2.408C217.086 3.477 56.554 148.563 12.383 189.597c-16.648 15.465-16.525 17.264 2.394 34.943 14.131 13.204 90.87 85.295 152.223 143.003C216.511 414.111 215.224 413 219.627 413c4.791 0 7.285-1.544 8.958-5.548 1.708-4.088 2.126-99.255.449-102.388-1.979-3.699-44.581-40.212-66.534-57.025-16.849-12.904-25.918-20.324-34.502-28.227l-7.843-7.221 2.121-3.045c4.695-6.744 26.913-29.4 37.689-38.434 33.184-27.821 69.669-59.556 70.651-61.454.747-1.445 1.342-18.26 1.8-50.862.763-54.376.852-53.533-5.95-56.375-3.99-1.667-3.238-1.665-6.966-.013"/></svg>