<svg xmlns="http://www.w3.org/2000/svg" width="287" height="262" viewBox="0 0 287 262"><path fill-rule="evenodd" d="M118.5 4.383C110.747 8.047 6.951 113.682 3.328 121.595c-3.002 6.558-2.956 15.336.114 21.704 2.391 4.958 108.861 110.18 115.206 113.855 16.213 9.39 36.567-1.506 38.083-20.387.917-11.425.228-12.357-35.274-47.794C104.155 171.703 90 157.519 90 157.452s39.426-.423 87.613-.791c98.037-.747 92.214-.285 100.225-7.962 14.536-13.932 7.722-39.411-11.65-43.565-4.992-1.071-146.297-.723-166.438.409-5.362.302-9.75.263-9.75-.086 0-.348 13.612-14.557 30.25-31.574 33.227-33.985 34.722-35.981 34.727-46.383.01-18.956-19.338-31.217-36.477-23.117"/></svg>