<svg xmlns="http://www.w3.org/2000/svg" width="512" height="512" viewBox="0 0 512 512"><path fill-rule="evenodd" d="M217.486 54.455c-24.123 4.384-44.601 21.399-53.855 44.749-2.158 5.443-12.444 34.772-29.826 85.046l-1.989 5.75H20v24h12c6.6 0 11.996.338 11.991.75-.042 3.295 39.689 200.96 41.215 205.054 6.897 18.495 24.537 33.493 44.323 37.685 10.385 2.199 242.504 2.211 252.883.012 19.205-4.069 34.574-16.434 42.841-34.468 2.753-6.007 17.825-78.878 39.252-189.783l3.719-19.25H492v-24H380.188l-1.488-4.25c-.819-2.338-7.409-21.33-14.644-42.205-7.236-20.876-14.324-40.901-15.75-44.5-9.274-23.403-29.762-40.258-54.245-44.626-10.148-1.811-66.559-1.784-76.575.036M221 78.091c-11.957 2.318-26.464 12.934-32.179 23.549-2.438 4.527-30.821 84.905-30.821 87.282 0 .763 28.606 1.078 98 1.078 67.403 0 98-.326 98-1.044 0-2.668-28.54-83.055-31.081-87.544-6.375-11.262-20.1-21.057-32.805-23.413-6.52-1.209-62.789-1.134-69.114.092M244 324.5v67.563l11.75-.281 11.75-.282v-134l-11.75-.282-11.75-.281zm-85.541-56.25c-.263.688-.362 26.45-.219 57.25l.26 56 11.75.282 11.75.281V267h-11.531c-8.304 0-11.666.35-12.01 1.25M329 324.532v57.531l11.75-.281 11.75-.282.258-57.25.258-57.25H329z"/></svg>