<svg xmlns="http://www.w3.org/2000/svg" width="512" height="512" viewBox="0 0 512 512"><path fill-rule="evenodd" d="M233 8.016C80.071 23.892-22.385 169 14.655 317.258 48.13 451.25 184.008 532.052 318.568 497.985c132.475-33.54 213.06-169.02 179.777-302.243C473.883 97.829 392.401 24.29 292 9.514c-13.332-1.962-46.434-2.802-59-1.498m-4 125.315c-12.545 3.72-22.904 12.223-28.226 23.169-.802 1.65-5.65 15.15-10.774 30s-9.75 27.563-10.28 28.25c-.738.956-8.922 1.25-34.842 1.25H111v14h14.759l12.187 61.75c8.145 41.265 12.965 63.467 14.531 66.925 4.619 10.2 13.982 17.742 26.023 20.964 3.957 1.058 20.126 1.337 77.5 1.337s73.543-.279 77.5-1.337c12.043-3.222 21.409-10.769 26.019-20.964 1.56-3.449 6.407-25.775 14.529-66.925l12.19-61.75H401v-14h-33.878c-25.913 0-34.107-.294-34.856-1.25-.538-.687-5.163-13.4-10.278-28.25-10.435-30.299-10.732-31.003-16.044-38.127-5.225-7.007-13.931-12.611-23.678-15.241-11.733-3.166-42.303-3.052-53.266.199m3.5 21.832c-9.15 4.746-10.622 7.414-19.858 35.995-4.203 13.006-7.642 23.916-7.642 24.245 0 .328 22.725.597 50.5.597 37.929 0 50.5-.292 50.5-1.172 0-2.158-13.978-44.866-15.914-48.621-2.489-4.829-7.644-9.713-12.304-11.656-6.246-2.606-39.958-2.15-45.282.612M248 298v41h15v-82h-15zm-52 0v35h15v-70h-15zm105 0v35h14v-70h-14z"/></svg>