<svg xmlns="http://www.w3.org/2000/svg" width="512" height="512" viewBox="0 0 512 512"><path fill-rule="evenodd" d="M89.263 17.514c-8.74 1.899-17.248 6.741-23.664 13.467-4.854 5.09-8.007 10.808-27.631 50.106l-22.152 44.362.437 27.025c.488 30.108.969 33.082 7.607 47.026 4.356 9.148 11.72 18.484 19.027 24.121l5.028 3.879.042 118.25L48 464h-9.288c-7.644 0-10.078.398-13.75 2.25-11.466 5.782-11.466 21.718 0 27.5l4.462 2.25h453.152l4.462-2.25c11.466-5.782 11.466-21.718 0-27.5-3.672-1.852-6.106-2.25-13.75-2.25H464l.043-118.25.042-118.25 5.028-3.879C489.322 208.032 495.5 191.028 495.5 151v-27.5l-21.833-43.411c-27.034-53.752-30.714-58.237-51.397-62.62-9.789-2.074-323.448-2.032-333.007.045M91.5 50.266c-3.732 2.084-4.987 4.179-18.707 31.234-8.09 15.95-14.727 29.338-14.75 29.75-.024.412 89.057.75 197.957.75s197.981-.338 197.957-.75c-.023-.412-6.66-13.8-14.75-29.75-13.72-27.055-14.975-29.15-18.707-31.234l-4-2.233h-321zM48.172 161.25c.364 17.024.411 17.336 3.566 23.824 14.914 30.674 58.774 30.181 73.011-.821 2.462-5.361 2.67-6.929 3.046-23.003l.403-17.25H47.802zm112 0c.364 17.024.411 17.336 3.566 23.824 14.914 30.674 58.774 30.181 73.011-.821 2.462-5.361 2.67-6.929 3.046-23.003l.403-17.25h-80.396zm112 0c.364 17.024.411 17.336 3.566 23.824 14.914 30.674 58.774 30.181 73.011-.821 2.462-5.361 2.67-6.929 3.046-23.003l.403-17.25h-80.396zm112 0c.364 17.024.411 17.336 3.566 23.824 14.914 30.674 58.774 30.181 73.011-.821 2.462-5.361 2.67-6.929 3.046-23.003l.403-17.25h-80.396zm-245.71 57.818c-13.133 13.413-31.071 21.031-49.712 21.113l-8.75.038V464h96v-49.316c0-62.523.729-66.582 14.415-80.269C203.401 321.43 209.908 320 256 320s52.599 1.43 65.585 14.415C335.271 348.102 336 352.161 336 414.684V464h96V240.302l-9.75-.616c-18.7-1.183-34.604-7.684-47.1-19.254l-7.173-6.64-6.449 6.033c-28.435 26.599-71.471 26.356-99.694-.565l-5.794-5.527-6.481 6.063c-28.574 26.729-73.784 26.178-100.517-1.226-5.438-5.574-4.595-5.614-10.58.498m77.46 135.206c-1.856 1.25-4.398 3.792-5.648 5.648L208 363.296V464h96V363.296l-2.274-3.374C296.276 351.834 297.232 352 256 352c-36.522 0-36.721.011-40.078 2.274"/></svg>