<svg xmlns="http://www.w3.org/2000/svg" width="512" height="512" viewBox="0 0 512 512"><path fill-rule="evenodd" d="M129.015 34.698c-4.014 2.116-6.292 4.198-8.5 7.768l-3.015 4.877v33.314l3.015 4.877c8.406 13.596 27.318 13.742 36.226.28 4.287-6.478 4.287-37.15 0-43.628-6.423-9.707-17.724-12.759-27.726-7.488m237.161-1.613c-4.846 1.473-11.817 8.869-13.2 14.004-2.382 8.845-.904 33.917 2.283 38.729 8.913 13.458 27.821 13.31 36.226-.284l3.015-4.877V64.078c0-16.323-.043-16.651-2.777-21.301-4.925-8.38-16.018-12.588-25.547-9.692M74 65.603c-11.889 3.181-21.34 11.251-27.265 23.281L43.5 95.452l-.295 37.774L42.91 171H469v-35.818c0-40.176-.177-41.504-6.903-51.911-7.847-12.141-19.287-18.238-35.71-19.032l-10.114-.489-.5 10.375c-2.744 56.833-82.68 57.492-84.624.697L330.779 64H181.221l-.382 10.75c-.858 24.152-16.783 40.962-39.848 42.065-25.44 1.216-43.471-15.932-44.758-42.565L95.738 64l-8.119.066c-4.465.036-10.594.728-13.619 1.537M43.235 320.271l.265 128.272 3.42 6.946c5.736 11.651 15.557 19.839 27.54 22.959 9.054 2.358 354.026 2.358 363.08 0 11.983-3.12 21.804-11.308 27.54-22.959l3.42-6.946.265-128.272L469.03 192H42.97zm79.759-74.337c-13.448 4.091-16.3 10.155-15.822 33.644.371 18.166 1.226 20.59 9.243 26.188l3.914 2.734h36.499l4.336-3.044c7.425-5.213 9.203-9.782 9.677-24.866.681-21.683-3.823-31.334-16.062-34.415-5.111-1.287-27.781-1.459-31.785-.241m117.242-.007c-12.259 3.104-16.244 10.851-16.214 31.519C224.061 304.219 228.907 309 256 309c27.116 0 31.939-4.771 31.978-31.636.038-26.348-4.965-31.714-29.895-32.061-8.021-.112-16.052.169-17.847.624m116.322.277c-6.194 1.706-13.059 9.207-14.558 15.907-2 8.936-.948 30.414 1.739 35.513 5.199 9.867 10.25 11.643 31.851 11.204 15.66-.319 16.194-.401 20-3.062 8.013-5.602 8.867-8.024 9.238-26.188.439-21.585-1.331-26.618-11.204-31.852-4.778-2.533-29.684-3.556-37.066-1.522M117.907 365.327c-8.883 4.689-10.358 8.4-10.735 27.005-.576 28.468 3.669 33.653 28.238 34.48 22.23.748 31.669-3.87 34.59-16.923 3.348-14.957.292-35.567-6.166-41.591-6.489-6.052-36.422-7.989-45.927-2.971m118.593-.668c-10.298 5.419-12.45 10.589-12.478 29.977-.027 18.4 1.827 23.521 10.444 28.849l4.877 3.015h33.314l4.877-3.015C286.11 418.182 288 413.013 288 394.854c0-19.416-2.192-24.793-12.21-29.946-5.048-2.596-34.475-2.783-39.29-.249m117.507-.099c-9.53 4.223-12.326 10.09-12.831 26.925-.527 17.585.616 22.402 6.776 28.563 6.178 6.177 11.098 7.344 28.638 6.793 15.084-.474 19.653-2.252 24.866-9.677l3.044-4.336v-18.237c0-20.638-.6-22.547-8.91-28.357-4.918-3.438-34.881-4.644-41.583-1.674"/></svg>