<svg xmlns="http://www.w3.org/2000/svg" width="512" height="512" viewBox="0 0 512 512"><path fill-rule="evenodd" d="M34.604 29.266c-9.89 5.671-10.211 19.943-.604 26.846 1.375.988 16.791 5.378 34.258 9.755 35.774 8.964 38.518 10.196 43.875 19.703 2.818 5.002 3.078 6.946 19.362 144.931C140.573 307.425 148 370.917 148 371.595s-2.862 2.833-6.36 4.79c-51.787 28.96-30.678 108.676 28.86 108.989 43.367.228 69.974-41.757 52.996-83.624-.672-1.657 3.287-1.75 74.897-1.75 41.584 0 75.607.304 75.607.675s-1.097 3.858-2.439 7.75c-11.467 33.27 9.265 68.813 44.439 76.185 18.733 3.926 37.709-2.082 52.103-16.496 31.864-31.909 17.861-84.317-26.148-97.866-4.964-1.528-17.001-1.708-133.632-1.993l-128.177-.313-.54-2.721c-.905-4.556-3.8-30.363-3.442-30.675.185-.161 58.996-4.885 130.693-10.499 73.9-5.786 132.255-10.778 134.74-11.526 15.032-4.524 24.314-16.198 27.05-34.021 2.814-18.321 2.871-26.563.211-30.408-5.401-7.807-12.995-9.96-20.835-5.907-6.396 3.307-7.73 6.364-9.952 22.799-1.09 8.063-2.51 14.878-3.253 15.613-1.441 1.428-261.167 22.387-262.381 21.174-.661-.662-18.432-150.07-18.435-154.996L154 144.05l53.927-.275c61.182-.312 57.199.255 61.823-8.795 4.079-7.984 1.342-16.419-6.71-20.677L258.685 112H149.359l-1.238-12.016c-2.114-20.514-6.942-31.877-18.344-43.173C119.476 46.605 113.955 44.322 77 34.993c-34.483-8.705-36.682-9.002-42.396-5.727M161.64 401.632c-13.078 4.017-20.711 19.998-16.065 33.634 6.214 18.238 30.094 23.732 43.758 10.067 19.847-19.846-.552-52.037-27.693-43.701m256 0c-13.078 4.017-20.711 19.998-16.065 33.634 6.214 18.238 30.094 23.732 43.758 10.067 19.847-19.846-.552-52.037-27.693-43.701"/></svg>