<svg xmlns="http://www.w3.org/2000/svg" width="512" height="512" viewBox="0 0 512 512"><path fill-rule="evenodd" d="M228.5 44.534C139.55 56.174 66.327 123.554 47.597 211c-9.33 43.56-4.408 94.474 12.52 129.5l3.383 7L64 391c.71 61.763-4.162 57 58.303 57h40.417l8.39 3.854c102.72 47.189 233.372-3.655 279.453-108.751 66.959-152.71-57.539-320.1-222.063-298.569m-43.752 190.893c-18.175 6.486-20.681 28.919-4.358 39.011C193.828 282.746 212 272.146 212 256c0-13.959-14.696-25.054-27.252-20.573m64.867.045c-15.901 5.668-20.031 23.602-8.11 35.217 10.51 10.239 22.69 9.099 31.908-2.986 11.84-15.523-5.351-38.805-23.798-32.231m64.385.554c-18.982 8.824-18.776 31.554.363 40.017 12.85 5.683 29.707-6.964 28.373-21.287-1.31-14.076-16.895-24.234-28.736-18.73"/></svg>