<svg xmlns="http://www.w3.org/2000/svg" width="512" height="512" viewBox="0 0 512 512"><path fill-rule="evenodd" d="M242 47.574c-32.777 3.758-51.887 8.893-75.5 20.29C66.652 116.056 22.441 230.452 63.565 334.212c7.433 18.753 7.569 17.217-4.718 53.394-9.797 28.849-10.155 30.209-10.234 38.894-.136 14.96 7.409 26.939 21.261 33.759 12.132 5.972 18.33 5.165 54.607-7.112 36.01-12.187 34.922-12.08 52.136-5.139 61.649 24.859 130.216 20.058 185.715-13.002 147.541-87.888 131.757-306.89-26.832-372.272-27.132-11.186-68.978-17.971-93.5-15.16m-9 33.862C163.13 91.498 107.687 138.753 87.568 205.39c-12.213 40.449-9.486 81.038 8.288 123.39 8.229 19.607 7.51 27.737-5.97 67.522-14.148 41.754-15.946 39.96 25.858 25.81 39.816-13.476 47.885-14.19 67.476-5.968 27.604 11.585 55.863 16.937 81.28 15.394C395.602 423.581 472.677 284.51 409.449 170 375.428 108.386 301.951 71.506 233 81.436M163.97 199.25c-11.748 5.935-12.098 22.665-.589 28.127 5.222 2.477 180.016 2.477 185.238 0 11.509-5.462 11.159-22.192-.589-28.127l-4.454-2.25H168.424zm-.752 85.413c-11.359 5.599-10.915 22.193.752 28.087l4.454 2.25h111.152l4.454-2.25c11.748-5.935 12.098-22.665.589-28.127-5.177-2.456-116.41-2.42-121.401.04"/></svg>