<svg xmlns="http://www.w3.org/2000/svg" width="512" height="512" viewBox="0 0 512 512"><path fill-rule="evenodd" d="M459.765 62.862c-106.512 55.901-202.916 144.815-246.044 226.927l-6.069 11.554-4.076-4.669c-2.242-2.567-16.901-19.482-32.576-37.587s-29.85-33.657-31.5-34.559c-2.689-1.47-8.161-1.608-52.837-1.334l-49.837.306-2.413 2.806c-3.913 4.55-3.329 9.468 1.837 15.463 17.229 19.997 194.519 210.307 196.798 211.251 3.911 1.62 9.531-.289 11.34-3.853.745-1.467 3.237-9.642 5.538-18.167 34.163-126.572 116.789-259.072 215.237-345.158C479.453 73.347 480 72.684 480 67.852c0-4.039-1.491-6.538-4.98-8.342-4.229-2.187-5.041-2.008-15.255 3.352"/></svg>