<svg xmlns="http://www.w3.org/2000/svg" width="512" height="512" viewBox="0 0 512 512"><path fill-rule="evenodd" d="M228.5 44.534C92.064 62.389 8.416 202.247 56.669 331.831l3.475 9.33-7.249 43.17c-9.58 57.056-9.469 62.028 1.638 73.136 11.106 11.106 16.084 11.218 73.103 1.643l43.137-7.243 12.363 4.46c61.691 22.252 130.756 15.084 185.397-19.243 92.987-58.417 126.97-176.493 79.029-274.584C407.444 80.417 318.851 32.71 228.5 44.534m11.909 41.493C129.993 96.625 58.31 208.098 95.111 311.98c9.548 26.955 9.456 22.399 1.439 70.64-3.547 21.348-6.344 38.919-6.217 39.047.128.127 17.699-2.67 39.047-6.217 48.241-8.017 43.685-8.109 70.64 1.439 96.565 34.209 201.956-25.472 223.008-126.284 23.26-111.382-69.614-215.425-182.619-204.578M150.3 225.801c-34.15 12.202-26.369 61.686 9.7 61.686 33.841 0 43.976-46.163 13.226-60.241-7.304-3.344-16.066-3.896-22.926-1.445m96 0c-34.15 12.202-26.369 61.686 9.7 61.686 33.841 0 43.976-46.163 13.226-60.241-7.304-3.344-16.066-3.896-22.926-1.445m96 0c-34.15 12.202-26.369 61.686 9.7 61.686 33.841 0 43.976-46.163 13.226-60.241-7.304-3.344-16.066-3.896-22.926-1.445"/></svg>