<svg xmlns="http://www.w3.org/2000/svg" width="512" height="512" viewBox="0 0 512 512"><path fill-rule="evenodd" d="M70.5 88.665c-6.72 3.551-10.439 9.591-10.478 17.02-.037 6.987 1.516 9.21 18.086 25.892l15.97 16.077-8.789 6.481c-22.43 16.538-44.858 37.988-61.678 58.988-30.844 38.509-31.238 45.764-4.361 80.334 78.846 101.415 202.027 144.315 316.419 110.197l11.169-3.331 23.831 23.942c15.094 15.164 25.298 24.629 27.831 25.816 16.572 7.767 33.71-12.627 23.271-27.69-4.936-7.122-331.39-332.334-335.203-333.927-4.551-1.902-12.271-1.805-16.068.201M223 98.529c-17.147 2.13-53.882 10.624-56.954 13.17-.25.207 9.827 10.665 22.393 23.24l22.847 22.864 6.53-2.458c86.042-32.386 170.728 51.384 139.221 137.716l-2.804 7.684 31.792 31.78 31.792 31.781 6.57-4.688c21.931-15.65 46.812-39.273 64.159-60.915 29.349-36.616 30.378-45.371 8.726-74.203-50.61-67.391-118.661-110.591-195.437-124.065-19.163-3.363-59.293-4.334-78.835-1.906m24.5 88.164c-1.65.216-3.653.619-4.45.895-.955.331 12.518 14.474 39.438 41.4 22.489 22.494 41.207 40.701 41.596 40.46s1.011-3.927 1.382-8.192c3.722-42.75-35.379-80.144-77.966-74.563m-93.299 34.557c-25.897 78.5 39.887 154.774 121.299 140.642 6.766-1.174 24.5-6.807 24.5-7.781 0-.35-6.637-7.224-14.75-15.277l-14.75-14.641-6.834 1.026c-41.91 6.291-83.176-34.975-76.885-76.885l1.026-6.834-14.641-14.75c-8.053-8.113-14.927-14.75-15.277-14.75s-2.01 4.162-3.688 9.25"/></svg>