<svg xmlns="http://www.w3.org/2000/svg" width="512" height="512" viewBox="0 0 512 512"><path fill-rule="evenodd" d="M65 1.501C32.081 8.154 7.797 32.725 1.414 65.838c-2.112 10.958-2.103 291.384.01 302.427 6.471 33.821 32.718 59.04 67.129 64.498L79 434.421l.012 18.539c.008 12.5.458 20.218 1.383 23.69 6.549 24.595 33.413 40.239 58.07 33.817 11.705-3.049 14.28-5.15 51.079-41.679L224.587 434h106.076c113.651 0 115.431-.07 128.785-5.066 25.802-9.654 47.956-35.962 51.114-60.697.369-2.895 1.069-5.509 1.555-5.809.504-.312.883-63.173.883-146.546 0-83.008-.377-145.767-.874-145.46-.48.297-1.173-1.719-1.539-4.481-4.101-30.914-31.283-58.138-64.425-64.527C435.68-.606 75.021-.524 65 1.501m5.618 39.605c-11.293 2.67-21.554 11.317-26.953 22.714L40.5 70.5v293l2.734 5.836c7.264 15.505 18.391 22.829 37.421 24.629 16.112 1.524 27.685 8.829 33.773 21.317 3.736 7.662 4.572 13.933 4.572 34.282v18.291l2.635 2.072c5.541 4.359 5.246 4.585 42.819-32.767 38.156-37.932 38.278-38.038 47.305-41.079 6.108-2.058 7.406-2.081 114.999-2.081 117.002 0 114.218.114 124.411-5.086 9.281-4.735 17.381-15.762 19.77-26.914.882-4.116 1.101-41.49.87-148.5l-.309-143-3.165-6.68c-4.404-9.296-10.073-15.087-19.174-19.585l-7.557-3.735-183.552-.156c-108.563-.093-185.138.219-187.434.762M.487 217c0 80.575.118 113.538.263 73.25s.145-106.212 0-146.5S.487 136.425.487 217m130.724-77.879c-15.141 4.403-17.393 27.386-3.528 36.006l3.817 2.373h249l3.817-2.373c12.57-7.815 12.57-26.439 0-34.254L380.5 138.5l-123-.168c-75.825-.103-124.261.199-126.289.789m0 118.008c-15.136 4.365-17.392 27.379-3.528 35.998l3.817 2.373 72.5.303c50.555.212 73.64-.029 76.267-.795 17.972-5.241 18.98-30.159 1.515-37.455-4.352-1.818-144.37-2.212-150.571-.424m205.28.736c-16.036 7.285-16.036 28.985 0 36.27 5.423 2.464 28.635 2.675 34.291.312 16.891-7.056 16.891-29.838 0-36.894-5.656-2.363-28.868-2.152-34.291.312"/></svg>