<svg xmlns="http://www.w3.org/2000/svg" width="512" height="512" viewBox="0 0 512 512"><path fill-rule="evenodd" d="M380 32.649c-24.749 9.769-117.148 50.393-119.169 52.393-4.859 4.81-5.099 7.775-4.522 55.958.292 24.475 1.028 48.1 1.635 52.5 8.58 62.201 34.253 100.931 93.064 140.396 34.203 22.952 31.831 22.988 67.492-1.04 60.678-40.883 87.697-84.776 92.404-150.109.512-7.112.863 18.516.953 69.715l.143 80.962-2.25-4.462c-5.782-11.466-21.718-11.466-27.5 0l-2.25 4.462V448H32V256h178.576l4.462-2.25c11.466-5.782 11.466-21.718 0-27.5l-4.462-2.25H32v-64h178.576l4.462-2.25c11.466-5.782 11.466-21.718 0-27.5l-4.462-2.25h-89.739c-62.576 0-91.343.34-95.038 1.123-13.019 2.76-21.923 11.664-24.677 24.676-1.59 7.511-1.588 292.902.001 300.402 2.76 13.019 11.664 21.923 24.676 24.677 7.541 1.596 452.861 1.596 460.402 0 12.489-2.643 22.298-12.081 24.346-23.425.393-2.174 1.163-4.518 1.711-5.209 1.536-1.935.306-353.532-1.254-358.665-2.181-7.174-3.724-7.988-64.456-34.001C392.259 34.325 383.791 31.152 380 32.649m-44.25 53.129L288 106.349v34.865c0 45.034 1.606 60.278 8.603 81.659 10.616 32.441 33.063 58.919 71.897 84.809 15.365 10.243 14.948 10.068 18.75 7.874 33.463-19.304 62.722-47.4 75.808-72.794 13.5-26.2 16.942-46.831 16.942-101.553V106.34l-47.614-20.42c-26.187-11.231-47.9-20.486-48.25-20.567s-22.124 9.111-48.386 20.425m90.018 43.873c-3.019 1.253-8.699 7.757-29.689 33.998-14.276 17.847-26.303 32.49-26.726 32.54-.424.05-5.739-7.279-11.812-16.288-10.168-15.084-11.407-16.529-15.668-18.274-11.163-4.572-23.631 5.186-21.455 16.79 1.067 5.683 35.568 57.007 39.794 59.195 4.052 2.099 10.224 2.316 14.531.511 3.859-1.618 69.612-83.072 72.032-89.233 4.845-12.333-8.405-24.467-21.007-19.239M.487 304c0 81.125.118 114.312.263 73.75.145-40.563.145-106.938 0-147.5C.605 189.687.487 222.875.487 304m72.475 18.25c-11.466 5.782-11.466 21.718 0 27.5 4.37 2.204 5.17 2.25 39.038 2.25s34.668-.046 39.038-2.25c11.466-5.782 11.466-21.718 0-27.5-4.37-2.204-5.17-2.25-39.038-2.25s-34.668.046-39.038 2.25"/></svg>