<svg xmlns="http://www.w3.org/2000/svg" width="512" height="512" viewBox="0 0 512 512"><path fill-rule="evenodd" d="M233.5 1.168C152.368 7.723 106.539 53.715 98.714 136.436l-1.215 12.836L92 150.673c-15.377 3.918-28.482 17.944-31.885 34.126-1.43 6.798-1.508 73.858-.094 81.31 2.442 12.879 11.799 25.726 22.796 31.298 8.811 4.465 15.238 5.593 31.874 5.593h15.271l.559 2.75c3.976 19.558 11.145 37.422 19.996 49.826l4.533 6.352-.275 16.133-.275 16.133-65.058 27.703c-35.782 15.236-66.646 28.684-68.587 29.883C.699 464.238-7.3 498.474 7.385 509.438l2.762 2.062 243.176.285c133.747.156 244.626.026 246.398-.29 7.862-1.403 13.279-9.863 13.279-20.742 0-3.779-.39-6.63-.867-6.335s-1.145-1.492-1.485-3.971c-1.392-10.151-10.679-23.451-20.323-29.103-2.312-1.354-33.143-14.771-68.514-29.815L357.5 394.177l-.275-16.124-.275-16.125 4.533-6.352c8.851-12.404 16.02-30.268 19.996-49.826l.559-2.75h14.932c17.591 0 23.177-.994 32.315-5.752 11.629-6.055 20.266-18.043 22.774-31.61 1.959-10.594.737-80.085-1.514-86.138-5.34-14.36-17.005-25.359-30.569-28.824l-5.476-1.399-1.224-12.821C404.004 39.315 341.697-7.573 233.5 1.168m1 29.445c-24.247 3.462-35.164 6.259-48.113 12.327-32.457 15.21-50.497 42.031-56.875 84.56-2.224 14.825-2.063 21.5.519 21.5 1.118 0 2.199-.562 2.404-1.25 7.629-25.584 14.107-38.35 25.03-49.322 18.47-18.556 37.598-20.35 73.54-6.899 25.041 9.371 24.575 9.364 47.495.736 30.454-11.463 45.614-12.308 63-3.512 14.319 7.244 30.233 31.34 36.653 55.497 1.041 3.918 1.663 4.75 3.554 4.75 2.872 0 3.093-6.085.781-21.5-8.328-55.53-37.408-85.616-91.958-95.139-8.658-1.512-48.895-2.767-56.03-1.748m-47.648 82.778c-10.507 3.754-19.157 17.672-25.351 40.794l-2.496 9.315-.002 66.566c-.003 68.507.194 72.507 4.188 84.934 25.345 78.867 143.123 86.852 180.69 12.25 3.404-6.758 3.216-7.327-1.381-4.19-5.89 4.019-18.49 9.932-25.685 12.054-11.219 3.309-50.743 3.985-55.574.951-8.863-5.566-9.673-16.665-1.756-24.065 2.619-2.448 3.101-2.514 23.345-3.159 28.255-.9 28.435-.959 53.898-17.683l16.228-10.658.022-58.585.022-58.585-3.599-11.415c-7.058-22.382-16.466-36.203-26.533-38.979-6.537-1.802-15.127.034-35.24 7.53-28.91 10.776-33.856 10.811-62.449.445-24.536-8.895-30.953-10.154-38.327-7.52M101 178.727c-3.424.622-8.689 4.771-10.501 8.275-2.619 5.064-2.183 74.364.496 78.757 3.865 6.34 6.736 7.233 23.255 7.237L129 273v-95l-12.75.136c-7.013.075-13.875.341-15.25.591m282 46.664V273l14.75-.004c16.519-.004 19.39-.897 23.255-7.237 3.285-5.388 3.063-74.894-.255-79.769-4.687-6.887-6.298-7.441-22.816-7.844L383 177.782zM185.013 402.164c.051 51.249 25.503 79.836 71.083 79.836C301.454 482 327 453.128 327 401.864v-12.916l-7.25 3.932c-38.431 20.842-90.257 20.605-128.5-.589l-6.25-3.463zM133.5 435.193c-11.55 4.962-37.875 16.199-58.5 24.972-26.358 11.212-38.386 16.825-40.481 18.893L31.538 482H181.92l-5.002-6.609c-8.381-11.072-14.888-25.797-18.4-41.641-.959-4.325-2.227-7.712-2.868-7.664-.633.047-10.6 4.145-22.15 9.107m219.982-1.443c-3.508 15.825-10.08 30.596-18.686 42L330.08 482h150.382l-2.981-2.96C474.94 476.516 359.212 426 355.972 426c-.424 0-1.544 3.488-2.49 7.75"/></svg>