<svg xmlns="http://www.w3.org/2000/svg" width="512" height="512" viewBox="0 0 512 512"><path fill-rule="evenodd" d="M231.5 1.051C67.902 17.831-38.318 180.997 13.125 336.5 41.131 421.158 113.675 486.599 201 505.98c24.981 5.544 75.908 8.224 88.229 4.642 20.922-6.082 24.049-35.144 4.987-46.35-4.529-2.662-5.386-2.792-21.608-3.272l-16.892-.5-5.527-9.5C236.871 428.109 216 372.455 216 359.833c0-1.724 1.378-1.834 23.25-1.855 26.253-.025 28.076-.422 34.951-7.609 13.09-13.684 7.287-36.552-10.633-41.898-3.784-1.129-10.911-1.471-30.634-1.471H207.23l-.706-5.65c-2.15-17.213-2.16-69.669-.017-89.6l.726-6.75h97.477l.659 7.25c.363 3.987.917 16.025 1.231 26.75.808 27.568 2.835 33.109 14.412 39.41 13.145 7.154 31.367.09 36.003-13.956 1.297-3.929.829-43.594-.645-54.704l-.63-4.75h98.166l1.064 3.75c4.438 15.643 6.651 42.555 5.016 61.007-2.089 23.579 5.004 34.722 22.918 36.004 16.132 1.154 26.27-9.164 27.735-28.228.402-5.227.996-8.138 1.498-7.346.463.731.839-5.922.848-14.996.008-8.97-.369-16.072-.838-15.782s-1.138-3.396-1.488-8.191C502.987 126.09 418.778 30.334 313 6.456c-23.817-5.376-59.019-7.711-81.5-5.405m19.354 59.199c-13.113 22.452-30.009 66.738-34.408 90.184l-.669 3.566h40.179c37.789 0 40.149-.104 39.679-1.75-.274-.963-1.899-7.086-3.609-13.607a340 340 0 0 0-17.57-50.438C268.052 73.632 257.127 53 255.814 53c-.399 0-2.631 3.263-4.96 7.25m68.439 1.963c.295.708 2.632 6.237 5.194 12.287 7.09 16.741 14.327 38.947 19.554 60l4.717 19 42.191.261 42.191.261-2.117-3.761C416.091 123.733 387.018 95.454 357 78.26c-15.071-8.633-38.829-18.744-37.707-16.047m-136.299 2.676c-40.425 15.035-84.576 52.314-102.873 86.861L78.93 154h84.032l.488-2.25c6.729-31.019 16.403-61.359 28.22-88.5.747-1.716-.07-1.562-8.676 1.639M56.967 209.124c-7.392 27.449-7.392 66.303 0 93.752l1.11 4.124h49.069c41.602 0 48.986-.213 48.532-1.397-2.717-7.08-2.717-92.126 0-99.206.454-1.184-6.93-1.397-48.532-1.397H58.077zM.407 256c0 9.075.152 12.788.337 8.25s.185-11.963 0-16.5-.337-.825-.337 8.25m330.664 68.716c-5.048 2.626-7.602 6.626-7.412 11.608.208 5.441 64.596 147.464 69.105 152.426 2.531 2.785 3.624 3.25 7.644 3.25 8.814 0 9.291-.573 22.665-27.255 6.684-13.335 13.114-25.301 14.29-26.591s13.272-7.944 26.881-14.788C491.466 409.678 492 409.236 492 400.408c0-7.649.03-7.633-78.979-43.5-77.643-35.248-76.749-34.897-81.95-32.192M80.1 360.25c11.185 21.508 38.54 50.071 63.9 66.724 14.272 9.371 45.886 24.473 47.614 22.745.186-.185-1.842-5.486-4.507-11.778-8.644-20.415-18.63-53.175-23.681-77.691l-.464-2.25H78.93z"/></svg>