<svg xmlns="http://www.w3.org/2000/svg" width="512" height="512" viewBox="0 0 512 512"><path fill-rule="evenodd" d="M244.112 49.581c-36.26 9.751-48.146 55.052-21.19 80.763 26.823 25.585 70.192 13.031 79.586-23.037 8.906-34.19-24.206-66.921-58.396-57.726m0 160c-36.26 9.751-48.146 55.052-21.19 80.763 26.823 25.585 70.192 13.031 79.586-23.037 8.906-34.19-24.206-66.921-58.396-57.726m0 160c-36.26 9.751-48.146 55.052-21.19 80.763 26.823 25.585 70.192 13.031 79.586-23.037 8.906-34.19-24.206-66.921-58.396-57.726"/></svg>