<svg xmlns="http://www.w3.org/2000/svg" width="498" height="498" viewBox="0 0 498 498"><path fill-rule="evenodd" d="M92.268 35.955C81.787 39.728 73.142 48.562 70.01 58.702c-2.876 9.311-3.195 342.523-.335 350.265 4.277 11.58 15.115 20.907 26.567 22.861 3.815.652 4.138.98 5.473 5.558 2.835 9.723 9.372 17.304 19.228 22.298l5.557 2.816 131.459.261c145.899.29 135.644.735 146.179-6.354 5.044-3.394 5.107-3.407 16.781-3.407 69.616 0 89.903-91.894 27.581-124.935l-6-3.181-.5-105.692-.5-105.692-3.186-6.725c-7.939-16.76-20.522-22.75-47.822-22.767L378.484 84l-22.992-23.093c-16.387-16.458-24.237-23.64-27.325-25-6.706-2.952-227.689-2.907-235.899.048m5.466 7.131c-8.701 2.055-15.727 7.717-19.486 15.701-1.639 3.482-1.764 14.371-2.012 175.349l-.264 171.635 3.264 6.258c2.727 5.229 4.168 6.769 8.764 9.365l5.5 3.106 135.838.264c74.711.145 135.683-.08 135.493-.5s-1.766-3.488-3.503-6.816c-12.404-23.778-7.991-54.339 10.811-74.858 6.672-7.281 17.197-14.251 26.611-17.621l6.25-2.237V222.557c0-78.59-.269-100.532-1.25-101.831-1.109-1.468-4.818-1.688-32.825-1.941l-31.576-.285-4.166-2.759c-2.291-1.517-5.407-4.633-6.924-6.924l-2.759-4.166-.5-31.075-.5-31.076-111.5-.152c-62.207-.084-113.165.242-115.266.738M214 138.869v10.87l-6.25 2.697c-77.924 33.637-82.578 142.737-7.75 181.681l6.5 3.383-26 .5-26 .5-.299 6.901c-.165 3.795.095 7.295.578 7.778 1.509 1.509 188.421 1.109 189.382-.406 1.35-2.127.979-12.412-.492-13.633-.872-.724-9.914-1.197-26.25-1.372L292.5 337.5l4.5-2.368c34.412-18.106 55-51.666 55-89.653 0-40.187-24.398-76.392-62.689-93.028l-7.811-3.393-.284-10.529-.284-10.529H214zm17.238 18.241c-27.05 4.507-53.502 25.411-65.485 51.753-13.35 29.347-8.791 69.392 10.303 90.484l2.854 3.153 16.295-16.327 16.295-16.326-17.91-17.287c-12.972-12.521-17.738-17.731-17.29-18.9.534-1.39 3.161-1.652 18.91-1.887l18.29-.273.265-28.64c.304-32.796-.638-29.937 10.843-32.918 15.681-4.072 35.63-3.608 50.142 1.165l6.25 2.056v13.919c0 7.655.344 13.918.765 13.918s6.303-5.551 13.071-12.336l12.307-12.336-6.324-4.12c-21.408-13.948-45.328-19.138-69.581-15.098m19.547 90.642c-34.493 34.511-62.999 63.054-63.347 63.429-.348.374 2.224 2.785 5.715 5.357 50.612 37.297 124.156 14.463 143.452-44.538 5.474-16.736 3.984-43.811-3.325-60.434-4.709-10.71-15.827-26.568-18.623-26.564-.636 0-29.379 28.238-63.872 62.75m7.391 9.881c-14.436 14.097-26.694 26.467-27.24 27.487-1.09 2.037 14.971 18.794 18.069 18.852 2.52.047 70.389-68.504 69.672-70.373-.529-1.378-2.941-1.599-17.434-1.599h-16.82zM412.5 329.157c-24.454 2.677-46.404 23.559-50.54 48.08-9.669 57.322 59.121 92.957 100.143 51.877 39.731-39.786 6.806-106.135-49.603-99.957m-.079 22.565c-1.556 1.555-1.662 3.567-1.096 20.75C412.033 393.979 412.426 395 420 395c7.468 0 7.859-1.024 8.617-22.535.795-22.566.834-22.465-8.617-22.465-4.209 0-6.342.485-7.579 1.722m.502 57.201c-6.211 6.211-1.887 16.077 7.046 16.077 7.029 0 11.643-6.695 9.003-13.067-2.596-6.267-11.181-7.878-16.049-3.01"/></svg>