<svg xmlns="http://www.w3.org/2000/svg" width="512" height="512" viewBox="0 0 512 512"><path fill-rule="evenodd" d="M36.105 80.583c-33.237 8.937-46.876 49.71-25.73 76.917 20.719 26.658 211.545 262.113 214.216 264.314 18.051 14.879 44.767 14.879 62.818 0 3.956-3.261 209.557-257.587 216.1-267.314 3.874-5.759 7.491-14.718 7.491-18.556 0-1.004.45-2.104 1-2.444s1-3.543 1-7.118-.394-6.257-.875-5.959c-.481.297-1.178-1.352-1.548-3.665-2.488-15.564-18.261-31.836-35.112-36.225-8.658-2.255-430.967-2.207-439.36.05"/></svg>