<svg xmlns="http://www.w3.org/2000/svg" width="512" height="512" viewBox="0 0 512 512"><path fill-rule="evenodd" d="M190.5 42.216c-5.675 2.044-11.264 6.665-13.401 11.08C175.03 57.57 175 58.598 175 126.251v68.62l-31.25.315c-30.065.302-31.408.398-35.405 2.536-10.596 5.666-12.999 17.493-5.791 28.5 3.96 6.047 133.896 119.516 140.446 122.647 7.956 3.803 19.206 3.766 27-.09 9.28-4.59 137.688-117.764 141.332-124.564 4.827-9.007 3.609-18.97-2.95-24.129-5.659-4.451-10.846-5.086-41.564-5.086H338l-.006-67.75c-.006-73.318.024-72.898-5.596-78.518-7.631-7.632-3.375-7.211-74.898-7.414-43.768-.125-64.948.159-67 .898m-88.641 355.792c-9.07 1.553-15.953 6.482-20.165 14.439-1.916 3.62-2.184 5.991-2.513 22.194-.554 27.292 1.803 34.243 13.855 40.859l5.464 3 155.451.262c176.976.299 162.618.978 171.689-8.112 6.845-6.857 7.35-9.137 7.345-33.15-.006-26.145-2.245-31.597-15.485-37.696l-5-2.304-153-.143c-84.15-.079-155.089.214-157.641.651"/></svg>