<svg xmlns="http://www.w3.org/2000/svg" width="512" height="512" viewBox="0 0 512 512"><path fill-rule="evenodd" d="M231.5 1.051C67.909 17.831-38.316 181.004 13.125 336.5 61.952 484.095 231.946 554.524 370.5 484.562c78.656-39.716 134.069-120.306 140.164-203.847.352-4.832 1.022-9.021 1.488-9.309.467-.288.848-7.724.848-16.524s-.384-15.763-.853-15.473-1.138-3.396-1.488-8.191C505.364 158.652 460.953 85.105 396.5 42.163c-46.433-30.937-109.936-46.76-165-41.112m-86.464 166.341c3.158 3.003 109.104 86.725 110.352 87.203 1.027.395 104.793-80.694 111.576-87.192C368.221 166.199 352.501 166 256 166c-96.103 0-112.216.202-110.964 1.392M118 261.261c0 77.617.086 81.506 1.829 83.084 2.99 2.706 270.07 2.529 272.522-.18 1.524-1.684 1.64-8.534 1.405-82.884l-.256-81.049-21 16.729c-114.551 91.25-112.862 89.997-119.359 88.57-2.361-.519-36.303-27.053-131.391-102.715l-3.75-2.984zM.407 256c0 9.075.152 12.788.337 8.25s.185-11.963 0-16.5-.337-.825-.337 8.25"/></svg>