<svg xmlns="http://www.w3.org/2000/svg" width="512" height="512" viewBox="0 0 512 512"><path fill-rule="evenodd" d="M153.5 33.356c-7.256 3.359-9.5 8.355-9.5 21.152v9.378l-28.25.307c-27.747.302-28.339.351-33.25 2.783-6.375 3.157-12.367 9.149-15.524 15.524l-2.476 5v337l2.476 5c3.157 6.375 9.149 12.367 15.524 15.524l5 2.476h337l6.301-3.417c6.999-3.795 10.013-6.909 14.004-14.476l2.695-5.107v-337l-2.476-5c-3.157-6.375-9.149-12.367-15.524-15.524-4.91-2.431-5.508-2.482-33.163-2.783l-28.163-.306-.337-10.874C367.366 37.806 363.269 32.5 352 32.5c-11.284 0-15.366 5.301-15.838 20.57L335.823 64H176.177l-.339-10.93c-.363-11.75-1.246-14.046-7.075-18.398-3.314-2.474-11.278-3.161-15.263-1.316M96 128v32h320V96h-47.823l-.339 10.93c-.472 15.269-4.554 20.57-15.838 20.57s-15.366-5.301-15.838-20.57L335.823 96H176.177l-.339 10.93c-.472 15.269-4.554 20.57-15.838 20.57s-15.366-5.301-15.838-20.57L143.823 96H96zm225.5 113.394c-1.65.784-21.867 19.224-44.926 40.976l-41.925 39.551-7.102-6.711c-40.103-37.892-36.636-35.124-44.047-35.171-11.573-.073-19.167 11.818-14.329 22.436 1.668 3.661 55.506 54.492 59.47 56.148 4.354 1.82 8.061 1.701 12.512-.399 5.271-2.488 99.206-91.352 101.358-95.888 5.996-12.637-8.367-26.953-21.011-20.942"/></svg>