<svg xmlns="http://www.w3.org/2000/svg" width="512" height="512" viewBox="0 0 512 512"><path fill-rule="evenodd" d="M238.5 48.684C172.727 54.395 113.186 91.035 78.734 147c-38.648 62.781-40.859 145.468-5.547 207.5l5.123 9-7.181 41c-8.907 50.854-8.913 50.509.917 55.524 7.139 3.641 9.015 3.145 45.202-11.948C135.81 440.334 151.31 434 151.694 434s4.547 1.986 9.252 4.413c57.25 29.535 127.247 30.168 185.444 1.678 140.468-68.767 156.291-264.366 28.783-355.811-35.448-25.422-90.055-39.645-136.673-35.596m3.725 112.771c-28.04 6.387-50.211 33.356-50.186 61.045.013 13.757 11.28 21.17 23.645 15.557 5.264-2.391 7.273-6.146 8.478-15.855 4.037-32.519 44.621-41.601 59.676-13.354 8.145 15.28 5.527 22.903-14.877 43.322-14.684 14.694-19.671 21.299-24.171 32.007-6.986 16.627-5.664 29.709 3.417 33.831 11.823 5.366 23.694-1.656 23.771-14.062.042-6.76 4.625-13.711 17.443-26.452 23.841-23.699 30.113-35.403 30.001-55.994-.209-38.521-39.053-68.734-77.197-60.045m5.991 176.533c-3.27 1.484-4.744 2.958-6.228 6.228-6.901 15.205 6.591 28.697 21.796 21.796 14.561-6.609 8.494-29.968-7.784-29.968-1.925 0-5.428.875-7.784 1.944"/></svg>