<svg xmlns="http://www.w3.org/2000/svg" width="512" height="512" viewBox="0 0 512 512"><path fill-rule="evenodd" d="M118 17.522C87.503 23.78 63.722 46.207 55.694 76.28L53.5 84.5V239c0 175.264-.742 159.836 8.595 178.729 9.975 20.183 27.261 34.515 49.958 41.421 7.326 2.228 8.428 2.271 67.947 2.603l60.5.338 2.614-10.886c8.313-34.622 36.299-68.823 66.59-81.378 6.437-2.668 6.475-2.265-.749-8.089-28.418-22.913-35.369-68.278-15.384-100.393 24.64-39.594 78.744-50.08 114.571-22.205l6.672 5.19c2.679 2.082 1.117-157.911-1.638-167.83-8.667-31.209-32.064-53.148-63.014-59.091-10.498-2.016-222.29-1.913-232.162.113m26.684 78.916c-12.848 4.619-14.469 21.819-2.68 28.444 3.76 2.113 3.97 2.118 92.734 2.118h88.966l3.306-2.25c10.239-6.968 10.324-20.648.169-26.962L323.5 95.5l-87.5-.217c-72.046-.179-88.174.025-91.316 1.155M147 180.922c-14.05 2.776-17.534 20.692-5.612 28.861l3.282 2.248 90.609-.265 90.61-.266 3.582-3.472c9.523-9.231 5.321-24.191-7.572-26.956-5.597-1.201-168.874-1.341-174.899-.15m205.951 67.105c-43.173 6.619-62.172 59.31-32.924 91.312 29.915 32.732 83.496 19.232 94.455-23.799 9.439-37.062-23.612-73.327-61.531-67.513m-206.472 17.902c-13.336 3.198-16.728 20.319-5.661 28.571 2.57 1.916 4.484 2.012 45.682 2.288 47.502.319 46.043.43 50.968-3.894 9.258-8.129 5.228-23.719-6.923-26.778-4.968-1.251-78.943-1.415-84.066-.187M348.5 383.119c-46.495 5.754-83.861 46.794-84.829 93.168-.202 9.71 1.751 13.896 8.166 17.501l3.935 2.212h85.154c82.732 0 85.263-.056 89.013-1.969 7.604-3.879 9.741-10.459 8.036-24.745-6.51-54.562-55.198-92.884-109.475-86.167"/></svg>