<svg xmlns="http://www.w3.org/2000/svg" width="512" height="532" viewBox="0 0 512 532"><path fill-rule="evenodd" d="M161.276 25.511c-3.424.744-9.496 3.071-13.494 5.171-7.744 4.067-7.406 3.762-54.792 49.318-14.589 14.025-35.292 33.765-46.008 43.866-35.927 33.868-40.481 41.083-35.464 56.189 4.927 14.833 15.692 19.304 49.478 20.549 12.495.46 19.288 1.088 19.479 1.801.162.602.784 6.495 1.383 13.095C95.275 363.341 205.19 483.569 346 504.427c72.689 10.766 145.348-5.733 140.441-31.892-1.645-8.767-6.396-10.074-22.26-6.125-37.623 9.366-76.288 6.599-105.901-7.579-27.924-13.369-63.078-46.71-78.144-74.113-16.402-29.835-28.965-85.684-26.174-116.357 1.959-21.524 6.717-60.373 7.489-61.146.286-.286 9.414-.887 20.285-1.336 29.515-1.219 39.073-4.111 46.226-13.985 10.466-14.449 6.248-26.303-18.462-51.875-8.8-9.108-32.584-33.875-52.853-55.039s-39.844-41.325-43.5-44.802c-14.149-13.458-32.958-18.776-51.871-14.667"/></svg>