<svg xmlns="http://www.w3.org/2000/svg" width="512" height="512" viewBox="0 0 512 512"><path fill-rule="evenodd" d="M10.001 63.123C.069 67.084-1.212 72.59 2.584 95 27.66 243.025 152.585 360.008 300.5 373.976c6.6.623 13.857 1.353 16.126 1.621l4.127.488.48 23.708c.557 27.543 1.877 33.642 9.039 41.779 5.973 6.786 10.692 8.903 19.728 8.851 15.485-.088 15.479-.083 92.102-77.055 57.159-57.417 58.703-59.07 62.674-67.081 10.204-20.586 9.251-42.343-2.655-60.594-2.701-4.139-25.03-27.123-67.331-69.304-72.393-72.188-69.614-69.912-85.275-69.865-9.185.027-11.97 1.166-18.28 7.476-8.037 8.037-10.156 18.336-10.204 49.582L321 183.665l-11.299 1.698C204.199 201.223 96.185 158.282 32.5 75.162c-9.091-11.865-15.002-15.028-22.499-12.039m35.448 77.578C86.246 257.734 198.29 340.448 323 345.599c28.217 1.165 27.341-.119 28 41.022.275 17.169.856 31.571 1.29 32.004 1.528 1.524 124.373-122.446 126.93-128.092 3.257-7.191 3.181-18.13-.175-25.033-4.137-8.51-126.076-129.88-127.093-126.5-.414 1.375-.797 15.467-.852 31.316-.103 29.772-.238 30.843-4.475 35.54-2.632 2.918-4.581 3.681-15.512 6.066-97.174 21.209-204.537-6.837-279.113-72.91-10.423-9.234-10.364-9.249-6.551 1.689"/></svg>