<svg xmlns="http://www.w3.org/2000/svg" width="512" height="512" viewBox="0 0 512 512"><path fill-rule="evenodd" d="M342.994 62.872c-8.995 2.959-15.613 9.878-18.987 19.848-2.064 6.1-2.343 9.157-2.774 30.487l-.48 23.708-4.127.488c-2.269.268-9.526.998-16.126 1.621C152.484 153.002 27.793 269.827 2.547 418.18c-2.951 17.34-3.007 20.926-.392 24.728 8.44 12.268 18.326 10.616 30.345-5.07 63.685-83.12 171.699-126.061 277.201-110.201L321 329.335l.031 20.083c.048 31.246 2.167 41.545 10.204 49.582 6.31 6.31 9.095 7.449 18.28 7.476 15.661.047 12.882 2.323 85.275-69.865 42.301-42.181 64.63-65.165 67.331-69.304 11.906-18.251 12.859-40.008 2.655-60.594-3.971-8.011-5.515-9.664-62.674-67.081-62.507-62.792-70.369-70.194-78.775-74.171-5.744-2.717-15.981-4.02-20.333-2.589m8.631 34.253c-.344 1.719-.626 15.556-.627 30.75-.002 38.584.203 38.292-27.633 39.48C198.052 172.703 86.3 255.112 45.449 372.299c-3.813 10.938-3.872 10.923 6.551 1.689 74.576-66.073 181.939-94.119 279.113-72.91 10.931 2.385 12.88 3.148 15.512 6.066 4.237 4.697 4.372 5.768 4.475 35.54.055 15.849.438 29.941.852 31.316.698 2.323 5.147-1.898 62.707-59.5 67.046-67.095 66.15-66.055 67.064-77.857 1.063-13.727 3.873-10.307-66.074-80.393C381.479 122.013 353.236 94 352.886 94s-.917 1.406-1.261 3.125"/></svg>