<svg xmlns="http://www.w3.org/2000/svg" width="233" height="414" viewBox="0 0 233 414"><path fill-rule="evenodd" d="M6.315 2.472C-.239 5.305-.175 4.679.584 58.796c.458 32.602 1.053 49.417 1.8 50.862.982 1.898 37.467 33.633 70.651 61.454 10.776 9.034 32.994 31.69 37.689 38.434l2.121 3.045-7.843 7.221c-8.584 7.903-17.653 15.323-34.502 28.227-21.953 16.813-64.555 53.326-66.534 57.025-1.677 3.133-1.259 98.3.449 102.388C6.088 411.456 8.582 413 13.373 413c4.403 0 3.116 1.111 52.627-45.457 61.353-57.708 138.092-129.799 152.223-143.003 17.275-16.143 18.236-19.759 7.926-29.809C216.931 185.746 17.712 4.853 15.516 3.474 12.07 1.31 9.619 1.043 6.315 2.472"/></svg>