<svg xmlns="http://www.w3.org/2000/svg" width="512" height="512" viewBox="0 0 512 512"><path fill-rule="evenodd" d="M244.265 1.542c-12.826 3.454-9.254.147-124.561 115.304C59.866 176.606 9.587 227.478 7.972 229.895-13.03 261.327 9.908 303 48.21 303H55v79.951c0 54.125.354 81.662 1.097 85.25 3.775 18.234 18.526 34.704 36.713 40.987 9.949 3.438 102.244 3.654 106.804.25 7.385-5.512 6.829.089 7.386-74.34l.5-66.758 3.036-4.92c6.981-11.314 12.729-12.724 49.964-12.25l26 .33 5.254 2.911c5.008 2.775 8.242 6.08 11.34 11.589 1.154 2.052 1.496 14.437 1.906 69.178.557 74.339.001 68.748 7.386 74.26 4.56 3.404 96.855 3.188 106.804-.25 18.187-6.283 32.938-22.753 36.713-40.987.743-3.588 1.097-31.125 1.097-85.25V303h6.79c22.511 0 43.782-16.624 46.77-36.553.367-2.446 1.066-4.447 1.554-4.447.487 0 .85-3.262.807-7.25s-.331-6.612-.639-5.832c-.309.781-1.297-1.506-2.197-5.081s-3.163-9.018-5.029-12.097C499.994 223.388 285.39 9.362 278.425 5.72c-10.53-5.507-23.388-7.08-34.16-4.178"/></svg>