<svg xmlns="http://www.w3.org/2000/svg" width="512" height="512" viewBox="0 0 512 512"><path fill-rule="evenodd" d="M83.761 2.062C75.824 6.253 76 4.795 76 66.46V121h360V66.46c0-61.928.205-60.274-7.974-64.447-6.15-3.137-338.319-3.09-344.265.049m44.832 46.313c-16.439 9.951-2.69 34.347 14.433 25.612 10.312-5.261 10.312-20.713 0-25.974-5.191-2.648-9.645-2.536-14.433.362m60 0c-16.439 9.951-2.69 34.347 14.433 25.612 10.312-5.261 10.312-20.713 0-25.974-5.191-2.648-9.645-2.536-14.433.362m60 0c-16.439 9.951-2.69 34.347 14.433 25.612a13.8 13.8 0 0 0 5.961-5.961c6.896-13.517-7.543-27.43-20.394-19.651M7.761 63.062C-.722 67.541 0 50.977 0 241c0 190.449-.758 173.532 7.974 177.987C11.897 420.988 13.35 421 256 421c277.624 0 249.054.965 254.396-8.593l2.604-4.659V239.315c0-92.638-.376-168.201-.835-167.917-.46.284-1.569-1.022-2.466-2.903-3.028-6.35-7.1-7.495-26.659-7.495H466v129.451c0 90.975-.33 131.026-1.11 134.75-3.529 16.853-17.761 31.079-34.689 34.674-7.526 1.598-340.876 1.598-348.402 0-16.95-3.6-31.028-17.681-34.665-34.674-.812-3.796-1.134-42.027-1.134-134.75V61l-17.25.044c-15.192.039-17.696.28-20.989 2.018M.489 241c0 93.225.117 131.363.261 84.75s.144-122.887 0-169.5S.489 147.775.489 241M76 235.04c0 95.265-.478 89.635 7.974 93.947 6.218 3.172 337.834 3.172 344.052 0 8.452-4.312 7.974 1.318 7.974-93.947V151H76zm52.593-51.665c-9.976 6.039-9.874 19.727.19 25.383 5.943 3.34 97.75 3.541 104.243.229 10.312-5.261 10.312-20.713 0-25.974-3.794-1.935-5.807-2.013-52.236-2.008l-48.29.005zm150 0c-10.382 6.284-10.282 7.052 8.062 62.125 16.981 50.978 16.866 50.705 22.458 53.558 8.351 4.26 12.67 2.413 26.637-11.391L346 277.536l10.25 10.131c5.637 5.571 11.69 10.851 13.45 11.732 12.207 6.107 25.806-7.492 19.699-19.699-.881-1.76-6.161-7.813-11.732-13.45L367.536 256l10.131-10.25c13.859-14.023 15.657-18.273 11.323-26.769-2.754-5.399-2.591-5.331-54.478-22.64-49.126-16.388-49.95-16.579-55.919-12.966m31.782 38.224c.333 1.045 3.2 9.667 6.372 19.159l5.765 17.258 12.75-12.777 12.749-12.778-17.755-5.872c-9.766-3.23-18.37-6.102-19.121-6.382-.965-.36-1.188.049-.76 1.392m-181.782 21.776c-9.976 6.039-9.874 19.727.19 25.383 5.943 3.34 97.75 3.541 104.243.229 10.312-5.261 10.312-20.713 0-25.974-3.794-1.935-5.807-2.013-52.236-2.008l-48.29.005zM181 466.5V482h-24.04c-22.12 0-24.355.161-27.986 2.013-10.312 5.261-10.312 20.713 0 25.974C132.866 511.972 134.62 512 256 512s123.134-.028 127.026-2.013c10.312-5.261 10.312-20.713 0-25.974-3.631-1.852-5.866-2.013-27.986-2.013H331v-31H181z"/></svg>