<svg xmlns="http://www.w3.org/2000/svg" width="512" height="512" viewBox="0 0 512 512"><path fill-rule="evenodd" d="M152.02 1.752c-1.914.961-4.502 3.277-5.75 5.146L144 10.296V193h224V10.296l-2.27-3.398C360.818-.456 368.117.003 256 .003c-93.687 0-100.736.119-103.98 1.749m147.516 48.305c-1.922.573-12.908 10.824-31.228 29.135l-28.263 28.25-12.273-12.115c-13.229-13.059-16.409-14.875-23.319-13.316-8.918 2.011-14.185 12.939-10.02 20.789 1.716 3.236 36.131 37.512 39.251 39.093 3.059 1.55 9.903 1.379 13.116-.327 4.158-2.209 69.967-68.691 71.153-71.881 4.385-11.794-6.347-23.231-18.417-19.628M71.182 131.03c-4.966 3.028-5.557 4.962-23.255 76.052L31.6 272.663l1.778 4.656c1.061 2.779 3.056 5.568 4.95 6.918L41.5 286.5l212 .285c116.6.157 213.383.039 215.072-.262 4.056-.722 9.133-5.805 10.562-10.575 1.059-3.537-.114-8.866-15.521-70.489-9.166-36.664-17.351-67.986-18.188-69.605-3.214-6.214-5.77-6.846-27.689-6.85L397.972 129l.264 31.593.264 31.594 3.922 1.348c12.057 4.144 14.539 19.364 4.343 26.636L403.5 222.5H255.456c-165.284 0-150.969.626-155.5-6.804-5.399-8.856-.861-19.516 9.486-22.28l4.058-1.084.264-31.666.264-31.666-19.764.004c-18.075.003-20.048.176-23.082 2.026M32 407.139c0 104.424-.496 97.966 7.886 102.677L43.772 512h423.597l4.255-2.06c8.925-4.32 8.376 2.416 8.376-102.801v-92.23l-3.75.796c-4.901 1.039-435.599 1.039-440.5 0l-3.75-.796z"/></svg>