<svg xmlns="http://www.w3.org/2000/svg" width="512" height="512" viewBox="0 0 512 512"><path fill-rule="evenodd" d="M233 8.016C80.071 23.892-22.385 169 14.655 317.258 48.13 451.25 184.008 532.052 318.568 497.985c132.475-33.54 213.06-169.02 179.777-302.243C473.883 97.829 392.401 24.29 292 9.514c-13.332-1.962-46.434-2.802-59-1.498m-36.5 144.986c-27.565 4.145-50.557 22.392-61.071 48.466-11.354 28.157-7.226 62.851 10.247 86.126 6.381 8.5 85.24 91.674 90.198 95.134 10.076 7.03 24.236 7.914 35.821 2.237 7.522-3.687 87.423-87.335 96.363-100.883 32.372-49.057 9.198-115.278-45.31-129.475-19.871-5.176-41.771-1.206-60.229 10.916l-6.814 4.476-5.102-3.348c-18.451-12.104-35.604-16.432-54.103-13.649"/></svg>