<svg xmlns="http://www.w3.org/2000/svg" width="512" height="477" viewBox="0 0 512 477"><path fill-rule="evenodd" d="M142.5 9.156C76.611 19.031 29.554 61.478 12.134 126.75 9.692 135.9 9.077 138.664 8.516 143a999 999 0 0 1-1.517 11c-2.875 20.009.607 48.335 8.973 73 7.586 22.367 21.311 45.191 37.584 62.5 2.068 2.2 6.481 6.925 9.806 10.5s10.341 11.016 15.591 16.536A7429 7429 0 0 1 97 335.582a33301 33301 0 0 0 23.116 24.465c8.039 8.499 15.914 16.852 17.5 18.562l9.27 10c3.512 3.79 12.512 13.381 20 21.314 48.15 51.011 47.118 50.071 61.31 55.919 13.902 5.728 25.591 7.16 38.804 4.752 8.754-1.595 10.014-1.992 19.5-6.139 8.921-3.9 14.073-8.422 36.5-32.04 16.379-17.25 37.43-39.613 39.137-41.577 2.341-2.693 27.46-29.279 39.966-42.299 9.356-9.74 13.157-13.795 25.254-26.936 1.571-1.706 7.646-8.07 13.5-14.14 10.741-11.139 22.987-24.668 26.609-29.397 1.081-1.411 2.233-2.791 2.56-3.066 2.015-1.692 12.471-19.281 17.239-29 18.275-37.249 22.437-79.779 11.693-119.5-1.19-4.4-2.274-8.45-2.41-9-.135-.55-.581-1.9-.991-3a206 206 0 0 1-1.752-5c-6.721-20.003-26.283-49.323-41.405-62.058-3.227-2.718-6.738-5.72-7.8-6.671-1.063-.951-3.77-2.976-6.016-4.5s-4.234-3.109-4.417-3.521c-.184-.413-.971-.75-1.75-.75-.78 0-1.417-.45-1.417-1s-.459-1-1.02-1-2.802-1.125-4.98-2.5-4.644-2.5-5.48-2.5-1.52-.45-1.52-1-.437-1-.97-1c-.534 0-3.347-1.082-6.25-2.404-25.997-11.835-57.897-15.262-87.78-9.43-13.687 2.67-23.205 5.965-37.5 12.982-8.531 4.187-9.478 4.721-16.484 9.311-4.82 3.158-4.863 3.188-9.66 7.026-4.192 3.353-3.333 3.601-12.039-3.477-2.672-2.172-15.156-9.765-19.817-12.054-2.75-1.349-5.15-2.791-5.333-3.204-.184-.413-.977-.75-1.764-.75s-2.212-.397-3.167-.883C199.489 11.088 164.169 5.908 142.5 9.156"/></svg>