<svg xmlns="http://www.w3.org/2000/svg" width="512" height="512" viewBox="0 0 512 512"><path fill-rule="evenodd" d="M69.656 44.57c-20.236 4.938-38.357 22.021-45.4 42.799L21.5 95.5v170c0 139.482.243 170.987 1.352 175.5 5.52 22.449 23.173 40.709 46.148 47.735 6.761 2.067 203.645 3.228 216.5 1.276 26.998-4.099 49.226-24.446 54.416-49.81 1.84-8.997 1.45-81.389-.464-85.969-6.694-16.022-29.837-17.068-38.297-1.732-1.433 2.597-1.722 8.181-2.155 41.581l-.5 38.581-3.015 4.875c-2.195 3.547-4.473 5.636-8.365 7.669L281.772 448h-99.52c-109.864 0-105.011.281-111.772-6.48-6.888-6.887-6.48 4.173-6.48-175.772v-163.52l2.794-5.348c2.034-3.894 4.121-6.169 7.671-8.365l4.877-3.015 98.579-.313c111.405-.353 106.734-.627 114.058 6.697 6.516 6.516 7.021 9.255 7.021 38.091 0 19.481.296 24.798 1.548 27.793 6.379 15.268 27.228 17.185 36.908 3.394l3.044-4.337V92.5l-2.623-6.742c-7.407-19.04-20.594-32.227-39.635-39.635L291.5 43.5l-108-.178c-90.546-.149-108.944.053-113.844 1.248m309.338 105.313C368.47 153.299 363 160.525 363 171.008c0 7.985 2.197 10.832 28.931 37.484C405.719 222.238 417 233.826 417 234.242s-56.489.758-125.532.758c-111.042 0-125.96.179-129.236 1.548-16.891 7.057-16.891 31.847 0 38.904 3.276 1.369 18.194 1.548 129.236 1.548 69.043 0 125.532.341 125.532.757 0 .417-11.48 12.229-25.511 26.25-28.117 28.097-29.11 29.485-28.28 39.502 1.201 14.475 17.55 23.523 30.291 16.764 2.324-1.233 23.116-21.32 49.63-47.948 44.618-44.809 45.656-45.941 46.849-51.075 2.842-12.227 4.638-9.867-46.849-61.575-50.791-51.009-53.621-53.206-64.136-49.792"/></svg>