<svg xmlns="http://www.w3.org/2000/svg" width="512" height="512" viewBox="0 0 512 512"><path fill-rule="evenodd" d="M208.459 1.88c-6.333 2.876-8.214 5.963-21.806 35.785l-12.766 28.008-20.804 11.951-20.805 11.95-22.389-2.244c-54.079-5.421-46.726-9.307-74.882 39.572-29.609 51.4-29.33 42.929-2.646 80.305L50 231.914v48.172l-17.639 24.707c-26.684 37.376-26.963 28.905 2.646 80.305 28.156 48.879 20.803 44.993 74.882 39.572l22.389-2.244 20.805 11.95 20.804 11.951 12.766 28.008c13.592 29.822 15.473 32.909 21.806 35.785 5.689 2.585 88.226 2.873 94.323.329 7.355-3.067 9.38-6.251 22.803-35.846l12.793-28.207 20.813-11.989 20.813-11.988 28.248 2.828c33.554 3.358 38.143 3.274 43.885-.811 6.715-4.777 47.092-75.459 47.67-83.448.538-7.441.018-8.38-20.72-37.399L462 279.679v-47.358l17.087-23.91c20.738-29.019 21.258-29.958 20.72-37.399-.578-7.989-40.955-78.671-47.67-83.448-5.742-4.085-10.331-4.169-43.885-.811l-28.248 2.828-20.813-11.988-20.813-11.989-12.793-28.207C312.162 7.802 310.137 4.618 302.782 1.551c-6.097-2.544-88.634-2.256-94.323.329m9.577 63.37c-7.518 16.598-12.481 26.293-14.486 28.295-5.084 5.075-59.113 35.654-63.93 36.182-2.266.249-16.001-.735-30.521-2.186-14.521-1.451-26.711-2.279-27.089-1.84-3.237 3.764-26.008 45.494-25.379 46.511.431.697 7.275 10.272 15.208 21.278 19.91 27.619 18.117 21.432 18.117 62.51s1.793 34.891-18.117 62.51c-7.933 11.006-14.777 20.581-15.208 21.278-.608.984 18.077 35.102 25.197 46.007.69 1.056 3.869 1.008 17.259-.261 24.701-2.341 22.032-1.179 24.699-10.754 9.287-33.339 33.018-63.061 65.8-82.41 1.766-1.043 1.404-1.661-4.702-8.014-61.253-63.735-11.626-171.379 76.542-166.026 84.311 5.12 123.347 104.109 65.757 166.751l-6.05 6.581 6.636 3.882c27.241 15.935 51.734 47.65 60.558 78.411 1.684 5.869 2.998 8.679 4.299 9.188 2.874 1.123 36.731 3.904 37.517 3.082 1.23-1.289 25.857-44.374 25.857-45.238 0-.46-7.204-10.882-16.009-23.161S423.538 293.925 422.996 292c-1.292-4.592-1.292-67.408 0-72 .542-1.925 8.19-13.546 16.995-25.826C448.796 181.895 456 171.473 456 171.013c0-.884-24.644-43.968-25.9-45.28-.404-.422-13.262.449-28.575 1.935-25.474 2.473-28.194 2.576-32.003 1.206-6.479-2.33-57.478-32.003-60.936-35.455-2.055-2.051-6.883-11.489-14.453-28.25L282.767 40h-53.295zm25.399 94.229c-44.76 9.741-60.929 65.951-28.371 98.629 27.753 27.856 75.972 20.035 93.283-15.13 21.817-44.32-16.783-93.974-64.912-83.499m1.623 156.594c-38.064 4.658-69.78 30.48-82.003 66.764-3.291 9.769-4.23 8.643 17.695 21.224 25.413 14.584 23.635 12.547 37.286 42.689L229.472 472h53.295l11.366-25.169c13.59-30.093 11.805-28.057 37.449-42.72 10.955-6.264 20.047-11.493 20.206-11.621.158-.127-1.069-4.452-2.726-9.611-14.027-43.661-58.691-72.35-104.004-66.806"/></svg>