<svg xmlns="http://www.w3.org/2000/svg" width="512" height="512" viewBox="0 0 512 512"><path fill-rule="evenodd" d="M71.286 25.44C61.49 28.527 55.978 33.267 50.864 43L48.5 47.5v96l2.62 5.586c3.33 7.101 8.693 12.464 15.794 15.794l5.586 2.62 43.75.29 43.75.289v21.35c0 24.12.277 25.116 7.312 26.242l3.812.611 24.188-24.065 24.188-24.064 14-.336c20.148-.483 29.027-5.183 35.38-18.731l2.62-5.586v-95l-2.62-5.586c-3.33-7.101-8.693-12.464-15.794-15.794L247.5 24.5l-86-.194c-69.139-.156-86.826.066-90.214 1.134m27.169 41.015C96.907 68.002 96 70.052 96 72s.907 3.998 2.455 5.545L100.909 80h118.182l2.454-2.455c3.248-3.247 3.248-7.843 0-11.09L219.091 64H100.909zm228.045-.089c-6.016 2.865-9.687 6.599-12.419 12.634-3.142 6.94-3.142 75.06 0 82 5.579 12.324 10.47 14.416 34.669 14.826l19.25.327v16.842c0 18.872.118 19.498 4.072 21.542 5.628 2.911 6.347 2.426 27.372-18.457l20.056-19.921 13.5-.358c14.78-.393 18.707-1.607 24.136-7.459 6.49-6.997 6.364-6.04 6.364-48.342s.126-41.345-6.364-48.342c-6.903-7.442-4.025-7.128-68.136-7.415l-57.5-.257zM98.455 106.455C96.907 108.002 96 110.052 96 112s.907 3.998 2.455 5.545l2.454 2.455h118.182l2.454-2.455c3.248-3.247 3.248-7.843 0-11.09L219.091 104H100.909zm18.305 127.103c-27.06 6.558-42.225 34.299-33.751 61.737 13.293 43.035 76.689 43.035 89.982 0 11.281-36.526-19.737-70.582-56.231-61.737m248 0c-27.06 6.558-42.225 34.299-33.751 61.737 13.293 43.035 76.689 43.035 89.982 0 11.281-36.526-19.737-70.582-56.231-61.737M106.085 346.052c-20.459 5.357-35.973 21.512-40.564 42.24-2.501 11.294-1.847 94.812.764 97.423 1.633 1.633 4.744 1.809 36.639 2.072l34.855.286-8.862-35.286c-10.808-43.038-10.806-42.985-1.74-44.436 6.867-1.1 7.24-.214 17.698 41.934l9.376 37.784 50.624-.284 50.625-.285 5.655-2.651c25.002-11.721 24.417-46.451-.979-58.188-4.43-2.047-6.344-2.177-36.328-2.462l-31.652-.302-.432-17.198c-.718-28.616-9.355-45.273-28.865-55.672-13.413-7.149-39.715-9.453-56.814-4.975m248 0C326.225 353.347 312 374.678 312 409.16V424h-27.865l3.355 4.986c10.986 16.325 10.986 37.703 0 54.028L284.135 488h65.631l9.367-37.75C369.247 409.489 369.841 408 376 408c3.722 0 8.012 3.877 7.972 7.205-.015 1.262-4.011 18.158-8.88 37.545L366.239 488h33.334c35.679 0 37.448-.222 39.407-4.953 2.362-5.702.86-92.427-1.734-100.119-6.239-18.502-20.913-32.111-39.842-36.953-10.712-2.739-32.713-2.701-43.319.077"/></svg>