<svg xmlns="http://www.w3.org/2000/svg" width="512" height="512" viewBox="0 0 512 512"><path fill-rule="evenodd" d="M231.5 1.051C67.909 17.831-38.316 181.004 13.125 336.5 61.952 484.095 231.946 554.524 370.5 484.562c78.656-39.716 134.069-120.306 140.164-203.847.352-4.832 1.022-9.021 1.488-9.309.467-.288.848-7.724.848-16.524s-.384-15.763-.853-15.473-1.138-3.396-1.488-8.191C505.364 158.652 460.953 85.105 396.5 42.163c-46.433-30.937-109.936-46.76-165-41.112m18.343 112.924c-8.653 2.614-11.789 6.791-13.039 17.367-1.148 9.719-1.572 10.234-11.352 13.799-28.842 10.516-46.631 31.417-49.441 58.094-.537 5.096-.984 23.087-.994 39.98-.022 39.533-.922 42.516-16.33 54.112-11.808 8.887-15.625 14.076-17.144 23.31-1.358 8.251 3.41 18.192 10.057 20.969 4.995 2.087 205.187 2.077 209.2-.011 14.381-7.483 13.259-28.679-2.142-40.446-21.404-16.354-21.651-17.088-21.675-64.448-.02-37.944-.584-42.408-7.008-55.441-8.083-16.398-23.272-28.884-44.94-36.942-8.029-2.986-9.029-4.229-9.057-11.259-.057-14.396-12.231-23.285-26.135-19.084M.407 256c0 9.075.152 12.788.337 8.25s.185-11.963 0-16.5-.337-.825-.337 8.25m216.215 105.803c-.995 1.609 1.996 12.87 4.598 17.309 8.779 14.98 28.948 23.179 45.317 18.42 15.742-4.576 28.01-17.84 28.701-31.032l.262-5-39.184-.262c-21.551-.143-39.413.111-39.694.565"/></svg>