<svg xmlns="http://www.w3.org/2000/svg" width="512" height="512" viewBox="0 0 512 512"><path fill-rule="evenodd" d="M151.807 36.984c-5.901 1.78-135.038 76.43-136.047 78.644-1.304 2.862-.25 7.04 2.094 8.294 1.924 1.03 142.728 32.76 149.656 33.725 6.895.961 10.789-.913 58.49-28.142 36.515-20.844 47.144-26.486 49.5-26.275 4.169.375 26.395 30.861 25.828 35.428-.479 3.865 15.533 42.694 17.784 43.126 2.347.451 31.301-16.977 31.707-19.084.336-1.741-26.025-35.458-28.448-36.388-.655-.251-2.521.231-4.147 1.072l-2.956 1.529-11.884-16.618c-6.536-9.139-12.235-17.204-12.664-17.92-.553-.925 1.437-2.551 6.841-5.589C310.734 81.378 313 79.45 313 75.649c0-6.226 8.704-3.861-120-32.611-31.086-6.943-35.899-7.651-41.193-6.054m77.149 108.251c-41.323 23.654-49.81 27.694-58.269 27.739-2.648.014-25.991-4.718-51.875-10.516s-47.262-10.341-47.508-10.096c-.528.529 7.399 54.433 8.81 59.901 2.716 10.533 9.053 13.387 33.048 14.883 46.164 2.88 97.204-5.105 142.393-22.276 25.009-9.503 25.106-9.77 18.824-51.87-2.503-16.775-4.645-30.595-4.759-30.711s-18.414 10.21-40.664 22.946M356 142.611c0 .336 1.786 2.744 3.968 5.351 8.802 10.513 7.969 23.181-1.93 29.337L354.5 179.5l28.755.265 28.756.266-.256 90.734-.255 90.735-145.75.253-145.75.254V243.038l-2.25-.46c-1.238-.253-7.42-.742-13.74-1.088-6.74-.368-13.664-1.362-16.75-2.404L82 237.31V399h367V277.45c0-132.381.369-123.919-5.661-129.647-6.005-5.704-6.835-5.803-48.807-5.803-21.193 0-38.532.275-38.532.611m23.229 169.058c-2.116.852-4.229 5.988-4.229 10.281V326h-18.444c-21.101 0-23.889.933-23.889 7.998 0 6.563 1.66 7.002 26.493 7.002 29.428 0 30.84-.796 30.84-17.378 0-10.533-3.805-14.756-10.771-11.953m-76.479 16.307c-3.416 2.695-3.777 7.997-.75 11.024 5.49 5.49 20 1.482 20-5.524 0-6.688-13.026-10.41-19.25-5.5M40.329 415.458c-6.784 2.951-6.898 10.588-.362 24.093 8.71 17.993 26.13 31.077 46.59 34.991 11.877 2.273 347.977 2.177 359.235-.102 22.333-4.521 41.584-20.792 48.805-41.253 3.662-10.373 2.525-15.903-3.716-18.079-5.21-1.816-446.36-1.474-450.552.35m187.744 25.177c-2.829 3.596-2.605 5.987.888 9.479l2.96 2.961 34.436-.287c38.653-.323 38.643-.321 38.643-7.443 0-7.415.378-7.345-39.427-7.345h-35.428z"/></svg>