<svg xmlns="http://www.w3.org/2000/svg" width="512" height="512" viewBox="0 0 512 512"><path fill-rule="evenodd" d="M240.352 104.041C155.8 108.913 75.998 154.202 12.376 233.42c-16.612 20.684-16.599 24.359.162 45.285 138.457 172.867 347.657 173.054 486.653.434 5.474-6.798 10.419-13.548 10.988-15 .57-1.451 1.438-3.42 1.929-4.375 1.175-2.287 1.153-9.043-.027-8.314-.505.312-1.198-.707-1.541-2.266-1.371-6.245-31.412-40.983-52.073-60.214-54.035-50.299-119.58-80.804-181.467-84.457-19.601-1.157-23.827-1.211-36.648-.472m5.148 44.917c-89.821 8.724-129.286 119.096-65.42 182.962 64.527 64.527 174.781 23.984 182.973-67.282 5.929-66.052-51.065-122.137-117.553-115.68m0 50.002c-26.204 5.667-45.43 27.482-47.163 53.513-2.682 40.288 38.447 71.825 75.927 58.22 46.478-16.87 53.733-77.117 12.496-103.769-10.907-7.05-29.18-10.577-41.26-7.964"/></svg>