<svg xmlns="http://www.w3.org/2000/svg" width="512" height="512" viewBox="0 0 512 512"><path fill-rule="evenodd" d="M49.999 141.652c0 48.316-.299 117.157-.663 152.98l-.662 65.132 7.413.667c70.073 6.299 135.009 37.855 179.17 87.069 4.442 4.95 8.451 9.15 8.91 9.333.458.184.833-65.075.833-145.019V166.462l-8.165-10.981C195.436 99.801 128.174 62.179 56.25 54.473L50 53.804zM454 54.687c-69.904 7.327-136.15 44.491-177.286 99.457L268 165.788v291.248l15.25-15.37c42.299-42.632 90.13-67.75 148.75-78.113 6.977-1.234 26.63-3.553 30.106-3.553.521 0 .894-63.755.894-153V54l-2.75.16c-1.512.088-4.325.325-6.25.527M12.253 125.821.007 129.5.003 286.556 0 443.612l9.25-2.355c60.382-15.378 132.423-11.581 192.245 10.133 3.812 1.384 7.087 2.361 7.277 2.172.189-.19-3.787-3.996-8.837-8.458-43.166-38.14-92.688-58.623-150.096-62.083-11.906-.718-16.439-1.368-18.373-2.636C25.695 376.604 26 384.027 26 247.55c0-69.053-.337-125.518-.75-125.479s-6.261 1.727-12.997 3.75M486 248.352v125.352l-2.285 3.398c-2.879 4.283-7.136 5.769-16.721 5.842-53.852.404-115.695 25.853-156.494 64.396l-8 7.558 10-3.534c61.202-21.63 130.129-25.24 190.637-9.986l8.863 2.234V130.071l-11.165-3.536c-6.141-1.944-11.991-3.535-13-3.535-1.77 0-1.835 4.427-1.835 125.352"/></svg>