<svg xmlns="http://www.w3.org/2000/svg" width="512" height="512" viewBox="0 0 512 512"><path fill-rule="evenodd" d="M60.5 1.342C43.814 6.883 35.613 17.942 35.54 35c-.104 24.506 22.879 40.723 46.256 32.64 6.452-2.231 16.049-10.751 18.679-16.584L102.304 47h22.548c12.401 0 22.121.372 21.598.827s-3.875 2.874-7.45 5.376c-36.28 25.393-70.575 84.734-80.033 138.482C57.025 202.724 60.728 209 69.185 209c8.312 0 10.864-2.95 13.382-15.465C98.299 115.34 146.564 58.98 206.791 48.477c14.578-2.542 13.936-2.833 14.36 6.511.339 7.465.576 8.2 3.625 11.25l3.262 3.262h55.924l3.262-3.262c3.049-3.05 3.286-3.785 3.625-11.25l.363-7.988h2.829c26.358 0 64.914 22.822 88.938 52.644 19.849 24.64 40.278 67.033 47.087 97.712 2.608 11.75 12.897 15.881 20.534 8.244 4.216-4.216 4.346-7.058.875-19.238-15.583-54.679-47.549-106.062-82.006-131.818-4.383-3.276-8.396-6.314-8.919-6.75-.522-.437 10.322-.794 24.098-.794h25.048l1.753 3.887c5.322 11.802 21.454 20.355 35.163 18.642 34.133-4.264 41.392-51.707 10.122-66.149-16.538-7.639-38.075-.256-45.174 15.487L409.696 23H291v-6.599C291 .947 288.979 0 256 0s-35 .947-35 16.401V23H102.304l-1.858-4.12C94.303 5.258 74.668-3.362 60.5 1.342M198.705 199.25c-52.216 124.076-48.124 113.945-47.321 117.146.35 1.391 3.573 6.034 7.163 10.317 18.415 21.966 31.328 47.329 36.931 72.537l1.723 7.75h117.598l1.723-7.75c5.593-25.162 18.522-50.578 36.847-72.437 7.618-9.087 8.438-11.695 5.787-18.41-3.444-8.724-90.34-214.889-90.755-215.32-.22-.229-.401 42.111-.401 94.09v94.506l2.75 1.228c16.989 7.588 24.7 28.509 16.838 45.682-12.453 27.2-50.785 27.065-63.278-.222-7.516-16.418.008-37.796 15.81-44.921l3.88-1.75v-94.348c0-51.891-.13-94.348-.29-94.348s-20.412 47.813-45.005 106.25m50.065 105.851c-6.136 4.579-5.373 14.732 1.42 18.873 11.643 7.099 23.286-8.344 13.596-18.034-3.694-3.694-10.668-4.084-15.016-.839M175 467.777c0 40.28-.1 39.568 6.011 42.729 4.347 2.247 145.631 2.247 149.978 0 6.111-3.161 6.011-2.449 6.011-42.729V431H175z"/></svg>