<svg xmlns="http://www.w3.org/2000/svg" width="269" height="458" viewBox="0 0 269 458"><path fill-rule="evenodd" d="M106.222 14.41c-6.559 2.14-7.738 3.248-55.231 51.916C2.108 116.419.993 117.803 1.01 128.364c.024 14.916 11.631 26.574 26.49 26.604 10.647.022 13.369-1.933 38.258-27.49 12.233-12.561 22.272-22.644 22.308-22.408.037.237.694 46.555 1.461 102.93 1.497 109.976 1.424 108.632 7.022 128.422 18.076 63.898 77.756 110.955 141.951 111.927 9.346.141 10.348-.042 15.324-2.798 16.469-9.123 19.062-30.422 5.222-42.898-5.874-5.296-9.14-6.436-21.876-7.637-46.67-4.401-82.948-37.241-91.585-82.906-1.354-7.158-4.525-195.57-3.444-204.61.346-2.889 1.195-2.181 22.859 19.05 23.917 23.439 26.822 25.546 36.187 26.252 20.549 1.55 34.895-20.04 25.313-38.095-3.676-6.927-91.409-93.303-99.591-98.052-5.9-3.423-14.287-4.334-20.687-2.245"/></svg>