<svg xmlns="http://www.w3.org/2000/svg" width="512" height="512" viewBox="0 0 512 512"><path fill-rule="evenodd" d="M75.88 66.794c-3.893 2.034-6.17 4.122-8.365 7.67L64.5 79.34l-.319 45.58c-.351 50.118.447 64.997 4.455 83.08 12.837 57.92 55.903 105.575 112.426 124.408 24.42 8.136 21.853 7.926 101.883 8.33l71.446.361-36.66 36.701c-24.847 24.873-37.155 37.898-38.195 40.418-7.093 17.173 10.326 35.232 27.246 28.247 5.14-2.122 115.651-112.322 118.298-117.965 2.393-5.102 2.394-11.894.003-17-1.268-2.709-20.229-22.293-58.728-60.659L309.5 194.182l-5.505-1.196c-16.14-3.503-29.329 10.749-25.009 27.024 1.068 4.026 5.029 8.343 38.353 41.797l37.161 37.306-67.5-.389c-64.111-.37-67.966-.495-76.777-2.485-52.23-11.792-88.755-48.112-100.803-100.239-1.486-6.427-1.818-15.294-2.327-62-.663-60.962-.399-58.807-7.973-65.055-6.847-5.648-15.086-6.411-23.24-2.151"/></svg>