<svg xmlns="http://www.w3.org/2000/svg" width="512" height="512" viewBox="0 0 512 512"><path fill-rule="evenodd" d="M431.5 73.338c-8.552 2.834-12.589 6.474-63.252 57.025L315.995 182.5l.003 20.75c.003 27.131-2.378 24.75 24.75 24.75h20.748l52.204-52.25c59.084-59.135 57.787-57.525 57.787-71.75 0-20.855-20.997-36.955-39.987-30.662M70.618 105.112c-11.272 2.646-21.552 11.308-26.953 22.708L40.5 134.5v227.104l3.735 7.556c6.914 13.99 18.459 21.512 34.822 22.69l9.033.65 13.247 22.991c19.043 33.05 18.281 33.05 37.33 0l13.251-22.991 112.844-.5 112.843-.5 7.556-3.735c9.101-4.498 14.77-10.289 19.174-19.585l3.165-6.68.273-79 .273-79-18.773 18.713c-23.327 23.252-20.043 21.793-48.991 21.765-28.233-.027-33.65-2.013-38.731-14.196-2.502-5.997-2.213-47.777.368-53.282 1.227-2.615 13.508-15.595 35.478-37.494C355.879 120.584 371 105.171 371 104.756c0-1.095-295.695-.744-300.382.356m35.837 73.343C104.907 180.002 104 182.052 104 184s.907 3.998 2.455 5.545l2.454 2.455h134.182l2.454-2.455c3.248-3.247 3.248-7.843 0-11.09L243.091 176H108.909zm0 64C104.907 244.002 104 246.052 104 248s.907 3.998 2.455 5.545l2.454 2.455h134.182l2.454-2.455c3.248-3.247 3.248-7.843 0-11.09L243.091 240H108.909zm0 64C104.907 308.002 104 310.052 104 312s.907 3.998 2.455 5.545l2.454 2.455h230.182l2.454-2.455c1.548-1.547 2.455-3.597 2.455-5.545s-.907-3.998-2.455-5.545L339.091 304H108.909z"/></svg>