<svg xmlns="http://www.w3.org/2000/svg" width="512" height="512" viewBox="0 0 512 512"><path fill-rule="evenodd" d="M63 108.814c-6.379 2.382-16.014 12.239-18.264 18.686-5.545 15.883 1.756 33.154 17.044 40.319l5.72 2.681h145c164.815 0 150.686.752 160.88-8.564 16.685-15.249 12.91-41.2-7.585-52.143L361.5 107.5l-147-.183c-135.499-.169-147.352-.052-151.5 1.497m362.696.157c-17.024 6.651-24.844 26.049-17.252 42.791 14.463 31.894 62.34 20.177 60.318-14.762-1.259-21.739-22.981-35.877-43.066-28.029M63 236.814c-6.379 2.382-16.014 12.239-18.264 18.686-5.545 15.883 1.756 33.154 17.044 40.319l5.72 2.681h145c164.815 0 150.686.752 160.88-8.564 16.685-15.249 12.91-41.2-7.585-52.143L361.5 235.5l-147-.183c-135.499-.169-147.352-.052-151.5 1.497m0 127.995c-6.381 2.39-16.015 12.249-18.264 18.691-5.545 15.883 1.756 33.154 17.044 40.319l5.72 2.681h81c92.4 0 86.986.479 96.88-8.564 16.685-15.249 12.91-41.2-7.585-52.143L233.5 363.5l-83-.188c-75.669-.172-83.397-.039-87.5 1.497"/></svg>