<svg xmlns="http://www.w3.org/2000/svg" width="512" height="512" viewBox="0 0 512 512"><path fill-rule="evenodd" d="M53.3 28.805c-15.286 5.449-25.185 18.497-26.106 34.41-.431 7.433.39 11.118 19.817 89.019 11.147 44.696 20.542 81.559 20.878 81.917s51.124 5.295 112.861 10.971S293 255.693 293 256s-50.512 5.202-112.25 10.878-112.525 10.613-112.861 10.971-9.731 37.221-20.878 81.917c-19.427 77.901-20.248 81.586-19.817 89.019 1.232 21.282 17.01 35.715 39.043 35.715h10.738l195.598-97.79C487.94 279.037 474.838 286.168 481.259 273.126c4.82-9.792 4.82-24.46 0-34.252-6.421-13.041 6.671-5.916-208.586-113.534L77.175 27.6l-9.337-.324c-7.186-.25-10.537.103-14.538 1.529"/></svg>