<svg xmlns="http://www.w3.org/2000/svg" width="512" height="512" viewBox="0 0 512 512"><path fill-rule="evenodd" d="M8 29.794c-9.732 5.155-10.127 19.5-.696 25.25 2.984 1.819 5.23 1.949 33.899 1.952 32.816.004 34.882.279 36.691 4.884C79.083 64.906 146 313.238 146 314.623c0 .507-2.953 1.481-6.562 2.166-34.192 6.486-49.444 47.139-27.936 74.46 10.093 12.821 20.1 16.969 42.315 17.54 14.684.377 16.244.584 15.592 2.065-12.815 29.088 4.152 63.548 35.235 71.562 39.982 10.308 75.696-29.189 61.858-68.411-.826-2.341-1.502-4.425-1.502-4.631s21.202-.374 47.117-.374h47.116l-.641 2.25c-2.911 10.209-3.59 14.142-3.58 20.71.073 46.329 55.772 69.353 88.58 36.617 14.429-14.397 19.506-36.508 12.533-54.577-1.168-3.025-1.696-5.642-1.174-5.817 9.848-3.286 11.851-17.439 3.564-25.183l-2.676-2.5-156.169-.5c-155.288-.497-156.19-.512-159.667-2.554-11.7-6.873-11.513-23.733.335-30.216 2.965-1.622 12.266-1.709 149.162-1.391 95.208.221 148.346-.013 152.743-.674 13.392-2.011 24.355-9.678 29.307-20.494 2.398-5.237 40.44-167.708 40.447-172.739.017-12.822-10.897-26.235-23.536-28.926-3.303-.703-64.947-1.299-184.426-1.781l-179.466-.725-9.313-34.493C103.398 42.089 101.457 38.3 87.239 31.318L81.5 28.5l-35-.28c-32.47-.26-35.253-.146-38.5 1.574M133 150.85c0 .523 3.559 14.158 7.908 30.3s8.417 31.262 9.039 33.6l1.13 4.25h58.873l-.476-2.75c-.262-1.512-2.307-16.694-4.544-33.736-2.238-17.042-4.299-31.217-4.581-31.5-.979-.982-67.349-1.143-67.349-.164m98.048 2.4c.026 1.238 1.958 16.425 4.293 33.75l4.244 31.5 28.708.265 28.707.266V151h-66zM327 185v34h28.531c21.926 0 28.633-.289 28.969-1.25.564-1.612 8.5-62.042 8.5-64.722 0-1.996-.513-2.028-33-2.028h-33zm96.501-32.794c-.634 1.746-8.501 61.318-8.501 64.374V219h26c14.3 0 26-.283 26-.63 0-.346 3.392-15.254 7.537-33.129 4.146-17.875 7.408-32.605 7.25-32.734-1.371-1.12-57.883-1.411-58.286-.301M159.688 248.75c-.237.412 3.342 14.7 7.954 31.75 10.618 39.258 6.974 35.5 34.433 35.5h20.963l-.505-2.25c-.278-1.238-2.34-16.177-4.583-33.2-2.244-17.022-4.302-31.31-4.574-31.75-.626-1.013-53.107-1.062-53.688-.05m84.382 2c.038 1.512 1.953 16.7 4.255 33.75l4.186 31 22.244.269 22.245.269V248h-53zm83.597-2.083c-.367.366-.667 15.666-.667 34V316h44.733l2.28-17.25c1.253-9.488 3.253-24.573 4.443-33.524 1.19-8.95 1.949-16.488 1.687-16.75-.744-.743-51.727-.559-52.476.191m82.866.583c-.517 1.601-8.535 62.67-8.534 65 .001 2.688 37.653 2.662 40.975-.028 2.145-1.737 17.527-63.387 16.336-65.472-.793-1.388-48.324-.901-48.777.5M209.511 410.541c-20.928 7.972-18.502 38.649 3.429 43.353 20.447 4.385 35.178-20.164 21.822-36.367-5.812-7.051-16.974-10.139-25.251-6.986m190.374-.221c-15.334 5.733-20.46 23.639-10.199 35.626 18.681 21.825 51.526-3.091 35.778-27.141-4.943-7.549-17.204-11.616-25.579-8.485"/></svg>