<svg xmlns="http://www.w3.org/2000/svg" width="512" height="512" viewBox="0 0 512 512"><path fill-rule="evenodd" d="M7.761 23.062C-.263 27.299-.086 25.778.225 87.759L.5 142.5l2.23 3.127c4.875 6.833-5.883 6.373 148.921 6.371 156.108-.001 144.102.554 149.079-6.896l2.27-3.398V31.296l-2.27-3.398c-4.978-7.453 7.059-6.9-149.23-6.852-137.414.042-140.069.079-143.739 2.016m401.843 24.951c-8.554 2.635-8.253 1.828-22.094 59.19-12.538 51.964-12.541 51.986-9.26 56.807 4.977 7.312 5.518 7.456 29.32 7.795l21.43.305v34.958l6.504 6.084c4.757 4.45 7.51 8.119 10.25 13.66l3.746 7.576.306 29.306.305 29.306H459V172h20.032c25.136 0 30.582-2.095 32.537-12.514.854-4.557-22.067-100.43-25.069-104.854-4.943-7.285-3.973-7.111-40.821-7.321-18.249-.104-34.482.212-36.075.702M81.5 232.398c-8.324 3.687-9.403 7.878-9.456 36.737L72 292.77l5.75.685c26.217 3.127 38.15 17.74 39.029 47.795l.46 15.75H375.79l.429-15.75c.82-30.131 12.699-44.653 39.106-47.804l5.824-.695-.324-25.126c-.358-27.645-.685-29.202-7.148-34.02l-2.823-2.105-163.177-.216c-133.901-.177-163.715.023-166.177 1.114M20 323.624c-9.555 3.329-9-1.838-9 83.827 0 81.919-.225 78.83 5.967 82.032 4.415 2.283 59.734 2.24 64.161-.049C87.13 486.33 87 488.16 87 406.933c0-80.084.108-78.393-5.25-81.942-2.246-1.488-57.869-2.72-61.75-1.367m395 0c-9.555 3.329-9-1.838-9 83.827 0 81.919-.225 78.83 5.967 82.032C414.392 490.737 419.945 491 444 491c31.967 0 33.529-.256 36.483-5.967 2.273-4.396 2.289-150.603.017-155.391-2.88-6.07-3.168-6.123-35-6.342-15.95-.109-29.675.036-30.5.324M117 434v47h259v-94H117z"/></svg>