<svg xmlns="http://www.w3.org/2000/svg" width="512" height="512" viewBox="0 0 512 512"><path fill-rule="evenodd" d="M61 1.489C5.756 13.901-17.408 76.68 16.575 121.888c20.856 27.745 61.482 36.908 93.134 21.007l7.773-3.905 16.362 16.362 16.362 16.361-3.607 4.725c-34.753 45.529-34.147 116.33 1.378 161.033l3.113 3.917-16.159 16.181-16.158 16.18-8.34-4.255C60.037 343.779 1 379.927 1 436.5c0 62.763 71.526 97.858 121.233 59.485 27.921-21.555 36.917-60.689 21.288-92.611l-4.081-8.336 16.041-16.019c8.823-8.81 16.389-16.019 16.814-16.019s4.074 2.25 8.109 4.999c47.746 32.538 107.11 30.476 158.184-5.494 1.093-.77 5.162 2.753 17.912 15.503l16.498 16.498-4.021 7.675C342.939 451.87 379.478 511.427 436 511.427c62.809 0 97.603-70.983 59.464-121.314-21.182-27.954-60.666-36.788-93.309-20.878l-8.345 4.068-16.508-16.508-16.508-16.508 3.606-4.724c33.125-43.395 34.421-107.859 3.109-154.639-3.03-4.527-5.509-8.504-5.509-8.838 0-.335 7.316-7.915 16.258-16.844l16.257-16.235 7.993 3.916c31.52 15.445 69.369 7.48 91.504-19.257C534.635 74.599 499.747.573 436 .573c-56.441 0-91.895 57.055-67.315 108.328l4.506 9.4-16.357 16.357-16.356 16.357-6.748-4.919c-44.71-32.596-107.862-33.2-154.06-1.473-4.306 2.957-8.136 5.377-8.511 5.377-.376 0-7.807-7.135-16.514-15.855l-15.831-15.854 4.504-9.396C164.107 65.529 141.404 15.021 95.5 2.516 86.996.199 69.109-.333 61 1.489m4.5 29.932c-13.273 3.321-24.186 12.118-30.247 24.382-5.67 11.472-5.67 27.922 0 39.394 16.789 33.972 64.705 33.972 81.494 0 3.712-7.511 3.753-7.725 3.753-19.697s-.041-12.186-3.753-19.697C107.213 36.511 85.825 26.336 65.5 31.421m360 0c-13.273 3.321-24.186 12.118-30.247 24.382-5.67 11.472-5.67 27.922 0 39.394 16.789 33.972 64.705 33.972 81.494 0 5.67-11.472 5.67-27.922 0-39.394-9.534-19.292-30.922-29.467-51.247-24.382M237.655 152.53c-73.272 13.864-110.013 95.269-71.526 158.479 4.86 7.981 25.144 29.991 27.639 29.991.515 0 1.245-4.387 1.622-9.75 1.604-22.822 9.854-38.371 26.332-49.63 6.983-4.772 18.695-9.561 23.469-9.599 4.202-.033 4.195-1.704-.009-2.376-13.282-2.124-27.227-14.937-32.145-29.535-11.199-33.243 19.566-66.397 53.428-57.577 44.397 11.564 44.713 75.234.43 86.849-5.695 1.494-5.493 1.742 2.826 3.479C295.657 278.276 315 303.364 315 331.587c0 12.483-.267 12.459 11.71 1.086 60.547-57.494 35.043-157.444-45.504-178.327-12.407-3.216-31.862-4.028-43.551-1.816m11.365 60.222c-10.705 5.378-10.705 21.118 0 26.496C258.815 244.17 270 237.107 270 226c0-8.066-6.702-14.997-14.5-14.997-1.65 0-4.566.787-6.48 1.749m-3.2 89.767c-6.446 2.067-14.926 10.001-17.862 16.711-2.078 4.75-2.314 6.85-2.382 21.27l-.076 16 7 1.875c9.993 2.677 33.986 2.832 44.83.289l7.829-1.836-.33-17.664c-.366-19.533-.667-20.659-7.572-28.301-7.526-8.331-20.63-11.809-31.437-8.344M65.459 392.395c-13.051 3.171-24.138 12.129-30.206 24.408-5.67 11.472-5.67 27.922 0 39.394 16.789 33.972 64.705 33.972 81.494 0 5.67-11.472 5.67-27.922 0-39.394-9.536-19.295-30.759-29.396-51.288-24.408m360 0c-13.051 3.171-24.138 12.129-30.206 24.408-5.67 11.472-5.67 27.922 0 39.394 16.789 33.972 64.705 33.972 81.494 0 5.67-11.472 5.67-27.922 0-39.394-9.536-19.295-30.759-29.396-51.288-24.408"/></svg>