<svg xmlns="http://www.w3.org/2000/svg" width="512" height="512" viewBox="0 0 512 512"><path fill-rule="evenodd" d="M190.459 8.351c-6.404 3.002-8.957 6.087-15.366 18.563L169.912 37H50.424l-4.462 2.25C38.135 43.197 37 46.901 37 68.5s1.135 25.303 8.962 29.25l4.462 2.25h411.152l4.462-2.25C473.865 93.803 475 90.099 475 68.5s-1.135-25.303-8.962-29.25L461.576 37H342.088l-5.181-10.086C325.593 4.888 332.043 6.556 257 6.244l-61.5-.256zM69 135.093c0 9.32 19.951 324.977 20.947 331.407 2.923 18.88 18.431 35.04 36.939 38.495 7.355 1.372 250.873 1.372 258.228 0 18.508-3.455 34.016-19.615 36.939-38.495.996-6.43 20.947-322.087 20.947-331.407V131H69z"/></svg>