<svg xmlns="http://www.w3.org/2000/svg" width="512" height="512" viewBox="0 0 512 512"><path fill-rule="evenodd" d="M233.5 1.455C182.787 9.427 141.749 48.477 131.515 98.5c-14.706 71.878 36.768 141.056 109.665 147.382 77.544 6.73 140.823-56.767 133.723-134.181C368.427 41.094 303.477-9.544 233.5 1.455m-90.822 246.637C79.765 254.736 41.88 319.63 42.024 420.5c.067 46.752 22.583 77.71 64.476 88.65l9 2.35h280l9-2.344c31.595-8.227 53.651-29.59 61.593-59.656 4.105-15.542 3.579-52.526-1.163-81.749-12.033-74.16-44.811-114.252-97.858-119.696-15.156-1.555-17.116-.871-40.376 14.084-39.438 25.357-71.93 30.376-109.616 16.933-13.414-4.785-13.995-5.091-34.944-18.396-11.047-7.016-19.22-11.51-22.468-12.352-5.551-1.44-5.55-1.44-16.99-.232"/></svg>