<svg xmlns="http://www.w3.org/2000/svg" width="512" height="512" viewBox="0 0 512 512"><path fill-rule="evenodd" d="M151.217 63.113c-15.074 2.51-25.303 14.397-26.064 30.287-.347 7.235-.229 7.843 1.395 7.22 2.874-1.103 24.361-.854 31.952.37 23.887 3.851 40.565 13.431 63.491 36.469l12.491 12.553-54.488 54.494L125.507 259h386.536l-.271-86.25-.272-86.25-2.308-5.099c-4.334-9.574-13.831-16.628-24.807-18.426-7.469-1.223-325.784-1.091-333.168.138M47.745 108.745l-11.742 11.741 21.579 21.596 21.579 21.596-1.663 3.911c-13.278 31.211-10.511 58.322 8.261 80.959l3.26 3.931 51.24-51.279 51.241-51.279-3.5-2.986c-20.784-17.729-49.538-21.624-76.681-10.389l-8.668 3.589-21.582-21.566-21.583-21.566zM19.583 239.556C9.179 255.914.667 269.797.667 270.407s14.925 26.407 33.166 57.326C52.075 358.652 67 384.185 67 384.474s-5.767.526-12.816.526c-20.927 0-29.703 2.595-37.757 11.166C7.445 405.724 6 410.854 6 433.182V450h177.187l-.343-18.774-.344-18.775-3.281-6.66c-4.013-8.148-11.084-14.809-19.017-17.917-5.208-2.039-7.95-2.282-31.65-2.803l-25.949-.571L72.77 334c-16.409-27.775-31.441-53.327-33.406-56.781l-3.571-6.282 6.603-10.457c7.653-12.119 7.445-10.995 3.702-19.999-2.794-6.723-5.141-15.629-6.807-25.824l-.791-4.843zM125 313.462c0 32.699 2.853 39.892 18.78 47.357l5.72 2.681 48.75.303c37.027.229 48.749.59 48.746 1.5-.003.658-1.124 12.447-2.491 26.197-1.368 13.75-2.491 25.563-2.496 26.25-.007.933-3.181 1.25-12.509 1.25H217v31h203v-31h-24.909l-.515-3.25c-.712-4.489-4.576-46.025-4.576-49.184V364h44.816c55.126 0 58.275-.45 67.571-9.652 8.304-8.22 9.071-11.485 9.425-40.098l.313-25.25H125z"/></svg>