<svg xmlns="http://www.w3.org/2000/svg" width="398" height="401" viewBox="0 0 398 401"><path fill-rule="evenodd" d="M44 3.714C12.438 11.486-1.361 49.169 17.904 74.977c1.428 1.913 27.18 29.469 57.227 61.236 57.179 60.453 57.152 60.421 54.19 66.287-.834 1.65-27.618 27.701-59.521 57.89-37.774 35.746-59.135 56.673-61.245 60-28.454 44.863 27.77 93.136 68.41 58.736 4.477-3.79 92.406-86.711 110.675-104.372 4.958-4.792 9.313-6.475 13.049-5.043.654.251 25.98 26.631 56.281 58.623 57.661 60.879 60.261 63.376 70.142 67.367 34.092 13.771 70.062-18.437 60.532-54.201-3.14-11.784-1.082-9.349-64.894-76.787-53.491-56.53-54.75-57.952-54.75-61.845 0-4.962-4.151-.717 58.5-59.828C397.638 75.921 397 76.709 397 55.974c0-37.776-43.554-59.01-73.336-35.754-3.428 2.677-74.054 69.17-109.369 102.97-9.291 8.892-11.755 10.106-16.678 8.216-.851-.326-24.155-24.513-51.788-53.75C88.17 16.652 83.667 12.102 77.569 8.694 67.165 2.88 54.823 1.049 44 3.714"/></svg>